<?xml version="1.0" encoding="UTF-8"?>
<svg version="1.1" viewBox="0 0 1600 1600" width="1280" height="1280" xmlns="http://www.w3.org/2000/svg">
<path transform="translate(0)" d="m0 0h1600v1600h-1600z" fill="#FCFBFB"/>
<path transform="translate(771,207)" d="m0 0h56l26 2 34 5 29 6 26 7 37 12 29 12 16 7 16 8 20 11 23 14 22 15 17 13 17 14 13 12 8 7 13 12 15 16 9 10 11 14 12 15 16 23 13 20 14 25 10 20 7 15 11 27 12 36 8 31 5 25 5 35 2 22 1 18v44l-2 27-4 29-7 35-8 30-12 36-7 17 1 5 4 4v38l-7 6h-4v2l-9 2h-6v9l-4 2h-11l-2 5-7 11-11 16-10 15-4 5v3l102 4 50 2v2l-68 3-52 2-54 2-111 3-54 1-94 1h-201l-160-1-75-2-93-2-86-3-73-4-2-2 59-3 77-3-14-19-12-17-14-22-15-27-13-27-10-24-10-29-7-23-7-29-5-27-4-34-2-30v-44l2-29 1-33 4-5 12-48 8-26 12-32 7-15 6-14 11-20 6-11 8-14 14-21 7-10 13-17 8-10 12-14 7-9h2l2-4 19-19 8-7 12-11 11-9 13-11 19-14 17-11 21-13 16-9 16-8 17-8 24-10 28-10 27-8 28-7 41-7 25-3z" fill="#B3B5AD"/>
<path transform="translate(628,494)" d="m0 0 2 1-13 12-8 7-10 9-14 12-15 14-11 9-4 4h-2v2l-4 3 1 41 1 3 7 2 9-1 5-3 2-4-1-46 5-2 2 5 4 11 8 19 4 9 10 22 7 17 9 20 13 31 2 3v-9l-12-28-7-16-15-34-13-30-5-12-5-11 5-5 12-11 11-9 13-12 11-9 7-6h2l1 67v39l1-102 3 3 1 4h2l7 11 13 20 8 13 1-37 3-5 5-3 14-3 10-1 1-1 20-3 6-2 33-6h9l2 4-1 11-31 6-44 8-5 1 1 20h2l2-4 4-3 13-4 20-3 3-1 16-1 7 3 5 4 3 6v40l-1 8-6 7v85l2 2-1 4-7 6-11 3h-40l-7-4-3-4v-2h-2v166l34-2 45-4 110-8 12-1h23l15 1 2 7 4 11 7 6 5 2h11l9-6 5-10 2-6 19 1v-5h16l47 2 36 2 62 3 36 2v-5l-31-1-1-1-37-2-52-1-72-4-3-1-1-12 4-1 117 6 76 4v-4l-60-3-45-2-59-3-31-2-1-1v-12l2-2 10 1 43 2 31 1 77 4 33 2-3-7-1-1-162-9-11-1h-11l-6 5 1-4 4-4h15l72 4 89 5 10 1 3 2 3 7 1 45v44l-2 1-2-1-98-5-27-1-33-2-40-2v6h20l74 3 88 4 18 1v5l-6 4-27-1-58-3-10-1-48-2-45-3-4-1 1 3 4 2 64 4 39 2 72 4h13l5-3 3-4 1-6v-43h7l7 14 6 5 5 2h8l8-3 6-7 3-7h21v74h5l1-3 3 5 3 3v38l-7 6h-4v2l-9 2h-6v9l-4 2h-11l-2 5-7 11-11 16-10 15-4 5v3l102 4 50 2v2l-68 3-52 2-54 2-111 3-54 1-94 1h-201l-160-1-75-2-93-2-86-3-73-4-2-2 59-3 78-3 38-1 14-1-2-4-8-14-3-9-4-20v-4h-23l-8-4-7-3-10-4-4-2v-150l-1-21-7-2-2-2v-7h3l-1 1v5l1 1h11l11-2 35-4 17-1 1-1 27-3 26-2 10-2 28-3 25-2 9-1 1-1 19-2 1-11-29 3-79 10-17 2-3 1-37 4h-11v-51l1-18v-32l-1-4 3 3 12 23 10 18 3 7 3 5 6 1-6-12-4-4-14-26-5-9-4-7-3-9 1-31 8-5 1-3 1-43h-3l2-4 14-12 9-7 17-14 12-10 14-11 12-10 13-5 4 1-14 13-11 9-11 10-11 9-13 12-14 11-1 2 4 1 1 24 1 15 5 2 8 1 8-4 2-3-1-43 14-13 11-9 12-11 8-7 11-10 11-9 13-12 16-5 11-3 3 1-10 9-11 9-11 10-11 9-11 10-11 9-14 13h-2l2 32 1 9 6 5h9l7-2 4-2 1-3-1-25-2-16-1-4 9-7 11-10 11-9 8-8 11-9 15-14 8-7 11-9 21-7z" fill="#DA4D5B"/>
<path transform="translate(771,207)" d="m0 0h56l26 2 34 5 29 6 26 7 37 12 29 12 16 7 16 8 20 11 23 14 22 15 17 13 17 14 13 12 8 7 13 12 15 16 9 10 11 14 12 15 16 23 13 20 14 25 10 20 7 15 11 27 12 36 8 31 5 25 5 35 2 22 1 18v44l-2 27-4 29-7 35-8 30-12 36-7 17-2 4h-5l-1-139-11-8-18-13-19-14-14-10-13-9-4-26-2-14-1-13-1-1-3-21-1-14-2-6-11-74-6-43-2-20-2-17 2-2h3l1-3 3-3 1-2v-12h-2l-2-4-9-4-21-5-48-10-57-12-103-22-48-10-64-14-15-3-1-1-9 1-4 2h-3v2l-44 14-21 7-21 6-16 5-18 6-21 6-48 15-29 9-19 6-55 17-18 6-21 6-21 7-21 6-20 6-9 3-28 9-5 5v14l5 5v2l5 1 1 4v20l-12 8-34 24-39 26-8 6v36l1 3 7 1 4-1 1-3 2 1h11l6-5 1-2 5 1 3 2 6-1 5-7 6 2 8 1v-2l4-2 2-6 5 1 3 2 13-1v57l-1 86-9 3h-2v7l2 2 6 2 1 3 1 18v37l-1 113 5 2 11 4 13 6 23 1 5 24 5 13 7 11v4l-14 1h-39l-14-19-12-17-14-22-15-27-13-27-10-24-10-29-7-23-7-29-5-27-4-34-2-30v-44l2-29 1-33 4-5 12-48 8-26 12-32 7-15 6-14 11-20 6-11 8-14 14-21 7-10 13-17 8-10 12-14 7-9h2l2-4 19-19 8-7 12-11 11-9 13-11 19-14 17-11 21-13 16-9 16-8 17-8 24-10 28-10 27-8 28-7 41-7 25-3z" fill="#17C5F1"/>
<path transform="translate(628,494)" d="m0 0 2 1-13 12-8 7-10 9-14 12-15 14-11 9-4 4h-2v2l-4 3 1 41 1 3 7 2 9-1 5-3 2-4-1-46 5-2 2 5 4 11 8 19 4 9 10 22 7 17 9 20 13 31 2 3v-9l-12-28-7-16-15-34-13-30-5-12-5-11 5-5 12-11 11-9 13-12 11-9 7-6h2l1 67v39l1-102 3 3 1 4h2l7 11 13 20 8 13 1-37 3-5 5-3 14-3 10-1 1-1 20-3 6-2 33-6h9l2 4-1 11-31 6-44 8-5 1 1 20h2l2-4 4-3 13-4 20-3 3-1 16-1 7 3 5 4 3 6v40l-1 8-6 7v85l2 2-1 4-7 6-11 3h-40l-7-4-3-4v-2h-2v166h10v1l-28 2h-7v119l-1 1h-161v-2h44v-60l-1-49-58 4-37 2-52 4-15 1v115l8-1 2-4 1-21 2-13 7-21 8-14 9-10 11-7 10-3h10l11 4 8 6 8 9 8 15 5 18 2 15 1 18 1 7h49l8 2v2l5 2 2 1v2h-3l-1 5h148l6 20 4 8 8 11 6 7v1l-147 2-20 1h-28l-1 6-4 4-8 4-10 2 1 2 13 1v1h-37l-93-2-86-3-73-4-2-2 59-3 78-3 38-1 14-1-2-4-8-14-3-9-4-20v-4h-23l-8-4-7-3-10-4-4-2v-150l-1-21-7-2-2-2v-7h3l-1 1v5l1 1h11l11-2 35-4 17-1 1-1 27-3 26-2 10-2 28-3 25-2 9-1 1-1 19-2 1-11-29 3-79 10-17 2-3 1-37 4h-11v-51l1-18v-32l-1-4 3 3 12 23 10 18 3 7 3 5 6 1-6-12-4-4-14-26-5-9-4-7-3-9 1-31 8-5 1-3 1-43h-3l2-4 14-12 9-7 17-14 12-10 14-11 12-10 13-5 4 1-14 13-11 9-11 10-11 9-13 12-14 11-1 2 4 1 1 24 1 15 5 2 8 1 8-4 2-3-1-43 14-13 11-9 12-11 8-7 11-10 11-9 13-12 16-5 11-3 3 1-10 9-11 9-11 10-11 9-11 10-11 9-14 13h-2l2 32 1 9 6 5h9l7-2 4-2 1-3-1-25-2-16-1-4 9-7 11-10 11-9 8-8 11-9 15-14 8-7 11-9 21-7z" fill="#B4BEC1"/>
<path transform="translate(801,425)" d="m0 0 2 1 4 33 10 70 14 100 7 47 4 28v5l-2 2-7 1-4 2-14 3-24 6-2 1-1 123-9 2-57 5h-22v-166h2l3 5 7 4h40l11-3 7-6-1-4-1-1v-85l6-7 1-8v-40l-5-8-5-3-9-1-11 1-15 3-13 2-10 4-4 5h-2l-1 2v-22l10-3 46-8 19-4h5v-11l-1-3h-9l-38 7-6 2-15 2-1 1-15 2-12 3-3 3-1 3-1 38-4-4-11-18-12-18-2-5h-2l-3-6-1 107h-1l-1-6v-106l-8 6-10 9-8 7-14 12-15 13-5 5 5 11 26 60 7 16 11 25 8 19v11l-4-5-13-31-10-22-10-24-7-16-13-29-3-11-4 1 1 46-3 5-8 4-9-1-4-2-2-3-1-41 3-3h2v-2l11-9 14-13 8-7 10-9 8-7 11-10 11-9 2-3-27 8-6 4-13 12-8 7-10 9-14 12-13 12-8 7-11 9-2 2 2 12 2 23v9l-5 5-3 2-5 1h-9l-7-6-3-39 5-5 14-13 11-9 10-9 11-9 11-10 11-9 8-7-17 4-12 4-7 7-11 9-13 12-8 7-15 13-10 9-8 7-7 6 1 43-4 5-7 3-8-1-5-3-2-15-1-24-3-1 2-4 10-8 10-9 8-7 13-11 10-9 11-9 10-9-9 2-10 5-10 9-9 7-11 9-13 11-10 8-11 9-12 10-1 2h3v43l-3 5-5 3h-2v32l5 12 13 23 9 16v2l3 1 5 9v3h-6l-6-9-4-10-10-18-10-19 1 3v32l-1 18-1 51 48-5 10-2 105-13h13v11l-1 1-19 2-1 1-18 2-25 2-27 3-2 1-35 3-18 2-1 1-26 2-34 4-3 1h-11l-2-2v-5l7-3 3-1 1-86 1-57-7 2h-6l-4-3-4-1-1 6-2 2h-3v2h-8l-6-2-4 6-3 2-6-1-2-2-4-1-2 4-5 4h-11l-2-1-3 3-7 1-3-2-1-3v-36l15-11 30-20 20-14 17-12 12-8 1-22 2-2 26-7 109-32 30-9 74-22 32-10 47-14 52-16 44-13z" fill="#FBF9F9"/>
<path transform="translate(833,490)" d="m0 0h11l25 5 21 3 34 6 1 1 17 2 54 9 7 3 3 3 3 8v-4l4 1 4 4 4 1 6-7h16l18 3 90 14 11 3 5 3 3 9 10 84 6 47 4 37v10l-1 1h-18l-73-7-214-22-24-3-7-3-3-9 1-3 3 3 2 7 8 2 22 3 1-3 11 1 4-1 12 1 1 1 15 1 10 1 4 1 30 2 8-1h11l-2-1-121-13-16-3-5-6-3-14-3-25-3-16-3-25-3-16-11-74-1-12 4-7z" fill="#245063"/>
<path transform="translate(800,892)" d="m0 0 17 2 14 7 3 2 2-1 7 12v2l5 1 1 7 3 6h2l4 16 2 4 12 3 13 1v-21l2-7 1-1 33-2 75 2 43 2 41 1 35 2 52 1 39 2 54 1 13 1 9 3 1-3 3 5 3 3v38l-7 6h-4v2l-9 2h-6v8h-1v-11h-54l-195-3h-87l-2 18 97-1h62l1 1 2 15 4 13 5 10 1 4h2l4 5v3l2 1h-24l-77-1h-107l-2 4-13 7-15 2-24 1h-22v-2l-10 1-5 1h-8l-12-3-10-6-8-7-9-13-7-16-3-10v-6h-2l-2-11v-29l2-11 7-21 6-12 9-12 3-3 3-5 10-6 8-3z" fill="#245164"/>
<path transform="translate(628,494)" d="m0 0 2 1-13 12-8 7-10 9-14 12-15 14-11 9-4 4h-2v2l-4 3 1 41 1 3 7 2 9-1 5-3 2-4-1-46 5-2 2 5 4 11 8 19 4 9 10 22 7 17 9 20 13 31 2 3v-9l-12-28-7-16-15-34-13-30-5-12-5-11 5-5 12-11 11-9 13-12 11-9 7-6h2l1 67v39l1-102 3 3 2 4v131l-1 109v37l-13-1-49-7-2-1h-11l-120 15-3 1-37 4h-11v-51l1-18v-32l-1-4 3 3 12 23 10 18 3 7 3 5 6 1-6-12-4-4-14-26-5-9-4-7-3-9 1-31 8-5 1-3 1-43h-3l2-4 14-12 9-7 17-14 12-10 14-11 12-10 13-5 4 1-14 13-11 9-11 10-11 9-13 12-14 11-1 2 4 1 1 24 1 15 5 2 8 1 8-4 2-3-1-43 14-13 11-9 12-11 8-7 11-10 11-9 13-12 16-5 11-3 3 1-10 9-11 9-11 10-11 9-11 10-11 9-14 13h-2l2 32 1 9 6 5h9l7-2 4-2 1-3-1-25-2-16-1-4 9-7 11-10 11-9 8-8 11-9 15-14 8-7 11-9 21-7z" fill="#244F62"/>
<path transform="translate(845,711)" d="m0 0 15 1 70 6 95 9 72 7 98 9 9 3 14 10 18 13 15 11 14 10 12 9v65l-21 1-4 9-7 6-6 2h-8l-8-4-6-7-4-9v-2h-7l1 45-3 7-4 4-3 1h-13l-87-5-44-2-44-3-6-4 1-3 16 2 54 3 27 1 28 2 57 3h10l5-3v-4l-149-7-50-2v-6h15l44 2 14 1 48 2 77 4 3 1v-44l-1-45-3-7-2-1-28-2-129-7-14-1h-15l-4 4 1 1 4-4h11l28 2 145 8 4 5v4h-19l-55-3-36-2-52-2-24-1-8-1-1 1v12l48 3 58 3 52 2 37 2 1 5-1 1-59-3-112-6-25-1v12l75 4 52 1 37 2 1 1 31 2 1 5-3 1-71-4-47-2-14-1-47-2-16-1v5h-19l-3 10-6 8-7 4h-11l-8-4-6-7-3-9-1-6-15-1h-23l-65 5-29 2h-17v-122l15-4 27-7 7-2 5 1 11 10 14 11 14 12 14 11 4 3-5-5-9-7v-2l-5-2-12-11-6-4v-2l-4-2-9-8-6-4z" fill="#B4B6AD"/>
<path transform="translate(792,866)" d="m0 0h11l12 4 11 7 7 7 10 16 5 11 5 16-1 4-5-10-1-3-4-4-6-10-5-2-14-7-17-2-11 2-12 6-4 3-3 5-8 10-6 11-4 9-4 15-2 5-1 7v29l1 11h2l4 16 7 16 7 10 6 7 11 7 8 3 6 1h8l9-2 6 1v2l46-2 15-2 14-8 3-3h105l77 1h22l-3-5-1-3h-2l-5-9-6-18-2-15h-159v-10l1-9h88l195 3 54 1 1 12-4 2h-11l-2 5-7 11-11 16-10 15-4 5v3l102 4 50 2v2l-68 3-52 2-54 2-111 3-54 1-94 1h-201l-160-1-38-1v-2h-23v-1l8-1 1-2 10-2 9-5h2l2-8 48-2 146-2-11-13-4-6-4-10-4-15v-2h-148l1-5h3v-2l-5-2-2-1v-2h-41v-1l33-1 13-1 134-3 21-1 6-2 2-4 2-28 4-20 6-18 10-19 9-11 9-8 10-6z" fill="#0C3D53"/>
<path transform="translate(1027,525)" d="m0 0h16l18 3 90 14 11 3 5 3 3 9 10 84 6 47 4 37v10l-1 1h-18l-73-7-214-22-24-3-7-3-3-9 1-3 3 3 2 7 8 2 22 3 1-3 11 1 4-1 12 1 1 1 15 1 10 1 4 1 30 2 8-1h37l5-3 5-8-1-12-8-65-5-34-5-41-1-18 4 1 4 4 4 1z" fill="#C7C2B7"/>
<path transform="translate(386,877)" d="m0 0h5v115l11-1 2-4 1-21 2-13 7-21 8-14 9-10 11-7 10-3h10l11 4 8 6 8 9 8 15 5 18 2 15 1 18 1 7h49l8 2v2l5 2 2 1v2h-3l-1 5h148l6 20 4 8 8 11 6 7v1l-147 2-20 1h-28l-1 6-4 4-8 4-10 2 1 2 13 1v1h-37l-93-2-86-3-73-4-2-2 59-3 78-3 38-1 14-1-2-4-8-14-3-9-4-20v-4h-23l-8-4-7-3-10-4-4-2v-113z" fill="#245063"/>
<path transform="translate(273,638)" d="m0 0 1 2 2 1-3 2v36l1 3 7 1 4-1 1-3 2 1h11l6-5 1-2 5 1 3 2 6-1 5-7 6 2 8 1v-2l4-2 2-6 5 1 3 2 13-1v57l-1 86-9 3h-2v7l2 2 6 2 1 3 1 18v37l-1 113 5 2 11 4 13 6 23 1 5 24 5 13 7 11v4l-14 1h-39l-14-19-12-17-14-22-15-27-13-27-10-24-10-29-7-23-7-29-5-27-4-34-2-30v-44l2-29 1-33z" fill="#19C5F0"/>
<path transform="translate(628,494)" d="m0 0 2 1-13 12-8 7-10 9-14 12-15 14-11 9-4 4h-2v2l-4 3 1 41 1 3 7 2 9-1 5-3 2-4-1-46 5-2 2 5 4 11 8 19 4 9 5 11 3 12-33 6-23 5-55 11-21 5-14 3h-4v41l13-1 112-19 30-5 14-3 5 10v4h-12l-15 3-21 3-50 8-36 6-40 7-1 7v40l12-1 64-7 48-5 34-4 28-3 1 1v11l-36 4-42 5-87 9-23 3-1 27-2 2-37 4h-11v-51l1-18v-32l-1-4 3 3 12 23 10 18 3 7 3 5 6 1-6-12-4-4-14-26-5-9-4-7-3-9 1-31 8-5 1-3 1-43h-3l2-4 14-12 9-7 17-14 12-10 14-11 12-10 13-5 4 1-14 13-11 9-11 10-11 9-13 12-14 11-1 2 4 1 1 24 1 15 5 2 8 1 8-4 2-3-1-43 14-13 11-9 12-11 8-7 11-10 11-9 13-12 16-5 11-3 3 1-10 9-11 9-11 10-11 9-11 10-11 9-14 13h-2l2 32 1 9 6 5h9l7-2 4-2 1-3-1-25-2-16-1-4 9-7 11-10 11-9 8-8 11-9 15-14 8-7 11-9 21-7z" fill="#0D3C52"/>
<path transform="translate(916,923)" d="m0 0 80 2 43 2 41 1 35 2 52 1 39 2 54 1 13 1 9 3 1-3 3 5 3 3-1 4-1 34-5 4-9 2-67-1-57-2h-53l-27-1-5-1-21-1-81-1h-13l-28 1-2-2 9-1-42-2-1-1v-42l2-7 1-1z" fill="#CCC6B9"/>
<path transform="translate(1011,791)" d="m0 0h15l72 4 89 5 10 1 3 2 3 7 1 45v44l-2 1-2-1-98-5-27-1-33-2-40-2v6h20l74 3 88 4 18 1v5l-6 4-27-1-58-3-10-1-48-2-45-3-4-1 1 3 4 2 64 4 39 2 72 4 11 1v2l-6 1-12-1-13-1h-15l-25-1-2-1-11-1-49-1-10-2-13-1h-30l-6-2-3-3v-2l-3 1-2-4 1-8v-7l3-6 1-6 2-29 1-5h16l47 2 36 2 62 3 36 2v-5l-31-1-1-1-37-2-52-1-72-4-3-1-1-12 4-1 117 6 76 4v-4l-60-3-45-2-59-3-31-2-1-1v-12l2-2 10 1 43 2 31 1 77 4 33 2-3-7-1-1-162-9-11-1h-11l-6 5 1-4z" fill="#0D3D53"/>
<path transform="translate(845,711)" d="m0 0 15 1 70 6 95 9 72 7 98 9 9 3 14 10 18 13 15 11 14 10 4 3v2l-14-1-80-7-50-4-96-8-82-7h-22l-7 4-16-12-12-10-3-2v-2l-5-2-12-11-6-4v-2l-4-2-9-8-6-4z" fill="#FCE8D3"/>
<path transform="translate(839,712)" d="m0 0 5 1 11 10 14 11 14 12 14 11 18 15 1 7v59l-27 3-82 6h-17v-122l15-4 27-7z" fill="#FCFBFB"/>
<path transform="translate(913,839)" d="m0 0h11l15 1 2 7 4 11 7 6 5 2h11l9-6 5-10 2-6 18 1-1 29-2 8-2 4v12l-1 4 2 2h2v2l5 2 4 2h30l20 2 3 1 49 1 11 1 2 1 30 1h13l16 1 12 1v-2l6-3 4-5 1-6v-43h7l7 14 6 5 5 2h8l8-3 6-7 3-7h21v73l-4-1-13-1-54-1-39-2-52-1-35-2-41-1-43-2-75-2-6-2-1-4 1-78z" fill="#AE4B5C"/>
<path transform="translate(1027,525)" d="m0 0h16l18 3 90 14 11 3 5 3 3 9 10 84 6 47 4 37v10l-1 1h-18l-73-7-214-22-24-3-7-3-3-9 1-3 3 3 2 7 8 2 57 6 170 17 55 6 33 3h8l-2-9-4-15-6-45-2-20-2-13-4-37-3-18-14 10h-2v18l1 8v16l2 42 1 23v31l-15-1-33-4 4-7 8-10 5-11 1-22v-100l-36 9-21 5h-2l2 61v70l-13-1-10-3-3-6-1-4-2-21-3-21-8-67v-5l9-4 7-4 10-4 8-4 21-7 16-5 9-3 28-7 4-2-20-3-32-5-18-3-9-2-22-3h-9l-6 7-1-4z" fill="#255163"/>
<path transform="translate(639,502)" d="m0 0h2l1 67v39l1-102 3 3 2 4v131l-1 109v37l-13-1-49-7-2-1h-11l-96 12-26 3 1-28 1-1 33-4 77-8 60-7 16-2 2 1v-39l-2-10-1-13-12-28-7-16-15-34-13-30-5-12-5-11 5-5 12-11 11-9 13-12 11-9z" fill="#245063"/>
<path transform="translate(800,388)" d="m0 0h6l6 2 193 41 131 28 23 5 11 4 4 3v3h2l1 3v9l-3 5-3 3-4 2 3 24v7h-1l-5-32-125-24-195-38-39-8v-3l3-4v-16l-3-11-11 2-4-1z" fill="#AAABA7"/>
<path transform="translate(756,530)" d="m0 0 9 1 8 6 3 6v40l-1 8-6 7v85l2 2-1 4-7 6-11 3h-40l-7-4-5-8v-123l1-14 3-6 5-4 13-4 20-3 3-1z" fill="#126681"/>
<path transform="translate(833,490)" d="m0 0h11l25 5 21 3 34 6 1 1 17 2 54 9 7 3 3 3 3 9 4 31 7 51 8 62 2 15v6l-5 8h-2l-5-8-68-68-1-3 15-11 20-12 14-8 8-4h2l-4-34-2-18-3-10-3-3-14-4-26-4-41-7-3-1 1 21 1 40v20l-5-3-77-77-8-7 1-7 5-4z" fill="#0D3E54"/>
<path transform="translate(850,1145)" d="m0 0h7l8 9 28 38 16 21 5 7 2 1v-75h29v124h-28l-12-15-13-18-16-21-8-11-7-9-1 74h-30v-124z" fill="#0C3D53"/>
<path transform="translate(797,391)" d="m0 0h8l4 11v11l-38 11-70 21-228 68-74 22-36 11-7 1-2-1v-13l5-5 10-4 22-7 42-13 42-13 18-5 15-5 54-17 39-12 35-11 13-4 23-7 32-10 23-7 35-11z" fill="#FDF4EB"/>
<path transform="translate(912,509)" d="m0 0 13 2 60 10 11 3 5 6 3 13 2 20 2 17v10l-21 11-20 12-17 12-10 8-13 12-8 6-1-1-2-13-2-53-1-14-1-40z" fill="#18C4F0"/>
<path transform="translate(797,915)" d="m0 0h12l8 3 6 4 8 8 8 15 4 15 1 7v26l-2 9-4 12-7 13-9 10-9 6-5 2h-13l-10-4-9-8-8-12-5-13-4-19v-11l3-22 4-11 6-11 6-8 5-5h3v-2z" fill="#B3BFC2"/>
<path transform="translate(1026 1e3)" d="m0 0h58l2 15 4 13 5 10 1 4h2l4 5v3l2 1h-24l-181-2 6-8 8-13 6-15 3-11 1-1z" fill="#16C5F1"/>
<path transform="translate(770,496)" d="m0 0h9l2 4-1 11-31 6-44 8-5 1 1 20 1 3-1 14v125l-1 166h10v1l-18 1h-12l-1-1-1-13 1-110v-149l-1-63 3-5 5-3 14-3 10-1 1-1 20-3 6-2z" fill="#B1BEC2"/>
<path transform="translate(1119,569)" d="m0 0h3l1 66v34l-1 22-7 14-9 11-2 3-12-1-21-2-6-2-1-70-1-35v-26l18-5z" fill="#87BCC1"/>
<path transform="translate(564 1e3)" d="m0 0h150l6 20 4 8 8 11 6 7v1l-147 2h-46l2-4 8-15 7-21 1-8z" fill="#16C5F1"/>
<path transform="translate(628,860)" d="m0 0h2l1 53v61l-1 1h-69l-1-2v-108l53-4z" fill="#DB4E5B"/>
<path transform="translate(1e3 845)" d="m0 0h1l1 6 47 3 4 1 31 2 47 2 10 1 42 2 15 2 1 5-113-6-44-1-34-2-7-1 1 11 39 2 56 1 20 1 8 1 33 1h29l7-1 2 1v3h5v-8h1v28l-2 1-2-1-98-5-27-1-33-2-40-2v6h20l74 3 88 4 18 1v5l-6 4-27-1-58-3-10-1-48-2-45-3-4-1 1 3 4 2 64 4 39 2 72 4 11 1v2l-6 1-12-1-13-1h-15l-25-1-2-1-11-1-49-1-10-2-13-1h-30l-6-2-3-3v-2l-3 1-2-4 1-8v-7l3-6 1-6z" fill="#7B5A6A"/>
<path transform="translate(613,1146)" d="m0 0h93v25h-61v28h55l1 1v24l-55 1-1 46h-32z" fill="#104055"/>
<path transform="translate(648,513)" d="m0 0 4 5 17 26 8 13 1-26h1l1 52v149l-1 31h-1v-25l-4 1h-12l-4-5-3 1-4 4h-3v10h-1v-109z" fill="#B3BEC1"/>
<path transform="translate(836,576)" d="m0 0 6 5v2l4 2 34 34v2h2l7 8 36 36 3 2v2l4 2 2 4 4 2v2l3 1 5 5 5 4 4 4 2 4 4 4h-17l-74-8-16-3-5-6-3-14-3-25-3-16-3-25-2-9v-18z" fill="#0C3D53"/>
<path transform="translate(460,933)" d="m0 0 10 1 8 4 8 9 7 14 2 10 1 12v22l-3 14-8 16-8 9-9 5h-13l-8-4-8-8-7-12-5-19-1-7v-12l3-19 7-16 8-10 4-4 8-4z" fill="#2F586A"/>
<path transform="translate(710,1145)" d="m0 0h107v26h-38v100h-32v-100h-37z" fill="#114055"/>
<path transform="translate(638,503)" d="m0 0h2l1 120 1 65h-2l-2-4v-6h-4l-13-30-11-25-13-30-12-28-5-11 5-5 12-11 11-9 13-12 11-9z" fill="#284F62"/>
<path transform="translate(805,413)" d="m0 0h4l-1 7-3 4-4 2-31 10-34 10-52 16-67 20-28 9-35 10-47 14-26 8-35 10-34 10-35 10-9 3-1 22h-1l-1-23-5-1-6-8 9-1 29-9 238-71 161-48z" fill="#9DBDC3"/>
<path transform="translate(795,519)" d="m0 0h10l6 8 1 2 3 23 19 117 1 7v17l-4 8-8 6-8 3h-19l-5-4-2-5v-13l-6-1-1-2 4-2 15-3 1-4v-78l-4-5-9-3 1-67z" fill="#245063"/>
<path transform="translate(566,793)" d="m0 0h14l56 8 7 3-3 3-8 3-40 4-171 14-14 1h-18l-25-8v20h-1l-1-21-7-2-2-2v-7h3l-1 1v5l1 1h11l11-2 35-4 17-1 1-1 27-3 26-2 10-2 28-3 25-2 9-1 1-1z" fill="#647A85"/>
<path transform="translate(831,563)" d="m0 0 2 4 5 2 7 8 67 67 3 1 1-8h1l2 13 8-6 7-7 8-7 7-5 9 10 63 63 3 7-5 3-19-1-45-5v-1l5-1-5-4v-3l-4-2v-2l-4-2-6-5-5-6-5-5-10-9-17-17v-2l-4-2-18-18v-2h-2l-7-8-29-29-2-1v-2l-4-2-2-2-1 11h-1l-3-20z" fill="#245063"/>
<path transform="translate(1e3 840)" d="m0 0h16l1 3h40l141 7 2-1 1 6v16l-1 8h-5l-2-3-7 1h-34l-28-1-8-1-20-1-56-1-39-2-1-1v-11l22 1 19 1 44 1 110 6 3 1-1-5-57-3-10-1-47-2-31-2-4-1-47-3-1-1z" fill="#114156"/>
<path transform="translate(670,857)" d="m0 0h2v117l-2 1h-36l-1-114 1-1z" fill="#DB4D5B"/>
<path transform="translate(747,539)" d="m0 0h11l8 7 1 16-1 32-2 15-2 2-21 3-16 2-10 4-3 3h-3l-2-10-2-23-1-6v-14l1-15 2-5 4-3 14-4z" fill="#0C88AA"/>
<path transform="translate(1047,576)" d="m0 0 5 2 2 2-1 2 7 1v4l2 1v-5h1l2 61v70l-13-1-10-3-3-6-1-4-2-21-3-21-8-67v-5l9-4 7-4z" fill="#245063"/>
<path transform="translate(1180 1e3)" d="m0 0h51 2 26v1h-11l-2 5-7 11-11 16-10 15-4 5v4h-4v2h-6v3l-6 2-11 1h-35l-6-2 2-4 9-8 7-10 7-15 6-24z" fill="#235063"/>
<path transform="translate(809,413)" d="m0 0 12 2 87 18 159 33 96 20 10 2 2-5-1-9h2l1 3v9l-3 5-3 3-4 2 3 24v7h-1l-5-32-125-24-195-38-39-8v-3l3-4z" fill="#617884"/>
<path transform="translate(764,497)" d="m0 0h14l2 7-23 4-26 5-12 2v2l-16 3-11 1-3 2-1 69v264h-8l-1-1-1-13 1-110v-149l-1-63 3-5 5-3 14-3 10-1 1-1 20-3 6-2z" fill="#4AB4CE"/>
<path transform="translate(1162,576)" d="m0 0h2l2 5 5 38 2 21 2 10 2 20 5 39 4 15 2 9h-2v-3l-26-3-8-3-3-81-1-19v-12l-1-8v-16l5-5z" fill="#87BCC1"/>
<path transform="translate(1122,569)" d="m0 0h1l1 22 5 5 14 15 4 3v-10h1l1 8v16l2 42 1 23v31l-15-1-33-4 4-7 8-10 5-11 1-22z" fill="#2A5567"/>
<path transform="translate(1072,939)" d="m0 0h25l57 1 10 1 1 1-1 15-2 21-59-1-33-1v-15l1-18z" fill="#0F3F55"/>
<path transform="translate(364,821)" d="m0 0 9 2 21 7 8 6 14 12 15 14 7 6h23l21-1h28v1l-12 2-37 2-52 4-15 1v115h-3v-115l-5 1-22 1z" fill="#FCFBFA"/>
<path transform="translate(1027,529)" d="m0 0h9l27 4 14 3 28 4 16 3 17 2-3 3-18 5-21 6-20 6-17 6-14 7-7 3-10 4-3-1-1-2-4-35v-10z" fill="#46B3CE"/>
<path transform="translate(386,877)" d="m0 0h5v115l-4 1h-14l-10-2v-113z" fill="#D94D5B"/>
<path transform="translate(628,494)" d="m0 0 2 1-13 12-8 7-10 9-14 12-15 14-11 9-4 4h-2v2l-4 3 1 41 1 2-2 1-3 6-4 3-6 2h-10l-5-3-2-7-2-23-2-13 9-7 11-10 11-9 8-8 11-9 15-14 8-7 11-9 21-7z" fill="#D94D5B"/>
<path transform="translate(756,530)" d="m0 0 9 1 8 6 3 6v40l-1 8-7 6-1-4-1-39-1-8-5-4v-2h-13l-27 5-11 4-4 5-1 7v120l3 5 5 4 2 1h18l4-1 10-18 10-16 4-5 3-3 2-14 1-25 1-11h1l1 85 2 2-1 4-7 6-11 3h-40l-7-4-5-8v-123l1-14 3-6 5-4 13-4 20-3 3-1z" fill="#124257"/>
<path transform="translate(567,512)" d="m0 0 3 1-10 9-11 9-11 10-11 9-11 10-11 9-14 13h-2l2 32 1 9 1 2h-2l-2 5-6 4-4 1h-12l-5-5-1-8-1-31 14-13 11-9 12-11 8-7 11-10 11-9 13-12 16-5z" fill="#D94D5B"/>
<path transform="translate(1303,1305)" d="m0 0h10l9 3 9 8 5 10 1 4v11l-6 12-8 7-7 3h-17l-9-4-8-9-3-7-1-12 3-11 5-7 9-6z" fill="#F45263"/>
<path transform="translate(1e3 802)" d="m0 0 11 1 43 2 31 1 77 4 14 1 9 2 10 1v11h-17l-17-1-55-1-75-4-31-2-1-1v-12z" fill="#17455A"/>
<path transform="translate(1119,569)" d="m0 0h3l1 66v27h-1l-1-14-4-2v-2l-4-2-1-3-4-2-42-42-2-1v-8l1-4 36-9z" fill="#87BCC1"/>
<path transform="translate(782,957)" d="m0 0 9 3-5 15v7l2-4 1 10 5 8 1 1h7l4-4 3-8v-15l-3-6 1-2 5 8 1 8 6 8 1 4-6 7v5l4 5h5l3-4 2-4v3l2 1 1 3-3 9-7 10-4 4-5 4-8 2h-7l-9-3-6-4-6-7-6-12-3-9-2-12v-14l2-10 1-2h5l3 9 5-3 1-2z" fill="#F8F8F8"/>
<path transform="translate(1063,583)" d="m0 0h2l-1 11 5 2 11 12 30 30 7 6v2l5 1 1 22-1 2-1 16-1-2-7-1-4-3v-2l-3-1-7-8-10-10-2-1v-2l-4-2-7-7-7-8-5-5-1-26z" fill="#9ABCC3"/>
<path transform="translate(656,733)" d="m0 0 4 2 2 3h16l1 25v30l-1 45-4-4-19-29-8-11-1-2v-40l2-13 5-2z" fill="#FDFBFB"/>
<path transform="translate(805,413)" d="m0 0h4l-1 7-5 1-2-2-8 1-21 6-6 2-29 9-21 6-23 7h-4v2l-14 5-21 6-10 3-12 3-9 3-11 4-7 3-13 4-21 5-16 5-15 4-10 3-18 6-17 5-16 5-17 5-12 4-9 2v2l-4 1-1 2-3 2 12-3 4 1-30 9-42 12-9 3-1 22h-1l-1-23-5-1-6-8 9-1 29-9 238-71 161-48z" fill="#B4BFC1"/>
<path transform="translate(789,590)" d="m0 0 9 2 5 6v78l-2 5-15 3-3 2 6 2v1h-10l-4-6h3v-83l3-5 3-2h10l-5-1z" fill="#B2BEC2"/>
<path transform="translate(797,899)" d="m0 0h10l9 2 5 2 3 3 6 4 7 9-1 3-9-10-9-6-5-2-13-1-12 3-9 6-4 2-2 4-6 8-8 16-2 6-1 12-1 28 3 11 2 7v4h2l3 9 3 4 4 7 5 8 5 5v2l7 2 2 2 9 2h13l6-2 5-1 2-2v3l-5 5 5 1 2 1-8 6-10 4-5 1h-8l-12-3-10-6-8-7-9-13-7-16-4-16-1-11 1-9v-10l2-17 3-7 4-13 7-14 7-9 9-10 12-6z" fill="#4A6F80"/>
<path transform="translate(797,915)" d="m0 0h12l8 3 6 4 8 8 8 15 4 15 1 7v26l-2 9-4 12-7 13-9 10-9 6-5 2h-13l-10-4-9-8-8-12-5-13-4-19v-11l3-22 4-11 6-11 6-8 5-5h3v-2zm0 3-10 4-10 9-8 14-5 13-2 9-1 17 2 14 5 15 6 12 8 9 10 6 3 1h13l10-5 8-7 7-11 5-11 3-14v-29l-2-10-3-7-1 4v2h2v17h-2l-2-4h-2l-3-4v6l-4 6-5-1-1-4 2-9 2-3-1-6-3-3-1-4-5-4-5-3h-3l2 3-1 7-3 4-3-1-2-3v-8l-4-2h-3l-1-2h-7l4-6 4-3 11-3h8l6 3 6 5h2l2 4 8 10 1-4-9-13-8-6-10-4z" fill="#A9ABA7"/>
<path transform="translate(452,898)" d="m0 0h10l11 4 8 6 8 9 5 9-1 2-5-3-7-8-3-2-18-2-10 2-8 4-3 3h-2l-2 4-7 10-6 12-5 16-1 5-1 35h-23l-8-4-7-3-10-4v-1h20l15-1 2-4 1-21 2-13 7-21 8-14 9-10 11-7z" fill="#0C3D53"/>
<path transform="translate(435,970)" d="m0 0 3 1v9l1 2 6 1v-13l7 2 1 5-2 3v20l5 7h7l3-4 2-6v-13l-3-9 5 1 4 6v3h2l1 4-1 1v9l2 1h-2l-1 7h-2l-1 4 4 2v4h3l3-8h6l-1 9-6 11-5 6-4 1v2l-8 3h-7l-7-3-6-5-7-11-2-5-3-12v-25l2-9z" fill="#F6F7F7"/>
<path transform="translate(454,546)" d="m0 0 2 1-11 10-11 9-10 8-17 14-13 11-14 11-4 3 11-1 1 5 1 18v19l-4 6-2 1h-9l-6-4-2-39 5-2-14 3-6 1 4-5 14-11 12-10 14-11 16-13 10-8 13-10z" fill="#F45263"/>
<path transform="translate(1204,873)" d="m0 0h1v32l-4 7-2 4-2 1h-13l-87-5-44-2-44-3-6-4 1-3 16 2 54 3 27 1 28 2 57 3h10l5-3v-4l-149-7-50-2v-6h15l44 2 14 1 48 2 77 4 3 1v-17z" fill="#9BBCC3"/>
<path transform="translate(503,531)" d="m0 0 4 1-14 13-11 9-11 10-11 9-13 12-14 11-1 2 4 1 1 24 1 16-4 6-5 3h-10l-5-2-1-3v-39h-3l2-4 14-12 9-7 17-14 12-10 14-11 12-10z" fill="#D94D5B"/>
<path transform="translate(456,919)" d="m0 0h12l10 3 9 9 1 4-5-5-10-6-3-1h-14l-7 3-1 3-6 5-8 12-6 15-3 14v35l2 7 6 13 2 3v3h2l4 6 5 5 7 5 10 3 14-2 7 2h2l-2 4-10 7-8 3h-10l-10-4-10-8-4-2-2-4-8-14-3-9-4-20v-31l3-16 8-19 7-11 3-1 2-4 11-6z" fill="#486F81"/>
<path transform="translate(418,1056)" d="m0 0h18l10 8 10 4v2h5v2l-84-1-59-2-73-4-2-2 59-3 78-3z" fill="#0F4055"/>
<path transform="translate(1031,625)" d="m0 0 1 3 4 2 27 27 1 2 1 55-13-1-10-3-3-6-1-4-2-21-3-21-2-17z" fill="#0D3D53"/>
<path transform="translate(1171,574)" d="m0 0h1l8 67 6 47 4 37v10l-1 1h-18l-73-7-214-22-24-3-7-3-3-9 1-3 3 3 2 7 8 2 57 6 170 17 55 6 33 3h8l-2-9-4-15-6-45-2-20-2-13-4-37-3-17 3 1 3 7z" fill="#346A7D"/>
<path transform="translate(1e3 878)" d="m0 0h14l20 1 5 1h18l46 3 49 1 36 2 11 1v9h-64l-37-2-11-2-35-2-26-1-19-2-2-1-2-3-3-2z" fill="#0C3D53"/>
<path transform="translate(1e3 859)" d="m0 0 22 1 154 8 25 2-1 9h-5l-2-3-7 1h-34l-28-1-8-1-20-1-56-1-39-2-1-1z" fill="#0E3F54"/>
<path transform="translate(576,557)" d="m0 0 3 1 4 13 9 21 4 9 5 11v2l-9 1-26 6-1 1-23 4-19 5-12 1-5 2v2l-6 2-5-1v2l-18 3-10 2-2 1v-2h-9l-1 2h-8l-2-1v-2l-2-1h8l8-4 3-7 5 4h12l8-3 4-6 4 1 3 2h9l7-2 4-2 2-8 4 4 2 1h10l9-4 4-7 9 3 9-1 5-3 2-4-1-46z" fill="#2C5264"/>
<path transform="translate(639,502)" d="m0 0h2l1 67v39l1-102 3 3 2 4v131l-1 109v37l-6-1-1-81-2-10-1-13-2-7h3l2 10h2l-1-5-1-74z" fill="#894E5F"/>
<path transform="translate(638,503)" d="m0 0h2v46l-7 3-27 8-19 4-5-5-2-5 5-5 12-11 11-9 13-12 11-9z" fill="#0E3D53"/>
<path transform="translate(1012,793)" d="m0 0h11l28 2 145 8 4 5v4h-19l-55-3-36-2-52-2-24-1-8-1-1-4z" fill="#9BBDC4"/>
<path transform="translate(678,1306)" d="m0 0h26l6 3 5 6 2 6-1 10-4 5-5 3 2 6 9 16v2h-11l-3-3-8-15-4-4h-2l-1 22h-11z" fill="#F55263"/>
<path transform="translate(1233,832)" d="m0 0 8 1 8 4 6 7 2 6v13l-4 10-8 7-6 2h-8l-8-4-6-7-3-6v-16l4-8 7-6z" fill="#F8F7F6"/>
<path transform="translate(956,818)" d="m0 0h10l10 5 6 8 1 4v15l-5 10-8 6-2 1h-11l-8-4-6-7-3-9v-11l4-9 9-8z" fill="#F6F6F4"/>
<path transform="translate(799,524)" d="m0 0h5l6 7 1 2 3 24 3 22v12l-2 5v9l-3 12-3 2-4-8-1 47h-1l-1-60-4-5-5-2v-60h2l2-4z" fill="#0C88AA"/>
<path transform="translate(450,946)" d="m0 0h10l7 3 5 5h-2l-1 6 3 1 5 10 5 2 2 7-2 5-2 2h-4v-2h-2l-4-8-5-2 3 5 1 4v13l-4 9-2 2h-7l-6-8v-20l2-3v-5h-5-1v9l-1 2h-6l-2-3v-8l-2-2 1-5 6-11z" fill="#B1BDC0"/>
<path transform="translate(1e3 895)" d="m0 0h20l74 3 88 4 18 1v5l-6 4-27-1-58-3-10-1-48-2-45-3-4-1-2 2z" fill="#23566A"/>
<path transform="translate(859,1304)" d="m0 0 5 2 22 26 4 5 1-31h11l1 58-2 1-15-15-14-16-2-1v30h-10l-1-1z" fill="#F25262"/>
<path transform="translate(440,1304)" d="m0 0 5 3 10 11 9 11 7 8 1-31h11v59l-5-3-12-13-9-10-4-5-2-1v30h-10l-1-1z" fill="#F45263"/>
<path transform="translate(1009,526)" d="m0 0 4 1 4 4 3 1 2 24 3 26 1 4 1 14 9 75 2 12v15l-12 1 3-7-1-12-8-65-5-34-5-41z" fill="#C6C3B8"/>
<path transform="translate(919,865)" d="m0 0 5 1 8 2v2h8l4 7 4-2h6l1 5-1 2h-2l-4 8v11l5 5 4 3 10 2-3 2-9 1h-3l-7-2v-2l-7-2-2 5 1 3h-14l-4 2 1 5-4-1v-42l1-11z" fill="#8A4C5C"/>
<path transform="translate(406,560)" d="m0 0 3 1-17 12-16 11-20 14-16 11-20 14-14 10h-2l3 40-6 7-2 1h-8l-4-4-1-22v-16l14-10 16-11 19-13 15-11 15-10 23-16 8-5z" fill="#DC4E5B"/>
<path transform="translate(507,566)" d="m0 0 2 1-12 12 6 1v-2l8-2 5 1 2 12 2 23v9l-5 5-3 2-5 1h-9l-7-6-3-39 5-5z" fill="#F9F8F7"/>
<path transform="translate(692,855)" d="m0 0h14v1h-5v113l-1 1h-10l-2-3v-103l-1-3 2-5z" fill="#AE4B5C"/>
<path transform="translate(1287,946)" d="m0 0 2 1v34l-7 6h-4v2l-9 2h-6v8h-1v-11h-54l-195-3-31-1-90-1-4-2-3-4 1-2 42 2 10 1v1l-11 1 30-1h20l66 1 21 1 5 1 27 1h53l57 2 67 1 11-3 2-2z" fill="#0C87A8"/>
<path transform="translate(672,856)" d="m0 0 3 2v118l-1 1h-161v-2h44l1-29v-82l1-1h18v1l-7 1h-10l1 56v54l69-1v-114h-5v-1h8l1 14v102l38-1z" fill="#CDC7BA"/>
<path transform="translate(1027,525)" d="m0 0h16l18 3 90 14 11 3 5 3 3 9 1 8v20l-2 1-3-8-2-1v-2l-4-1-24-24v-2l3-3-18-1-54-9-9-2-22-3h-9l-6 7-1-4z" fill="#0E3E54"/>
<path transform="translate(786,1304)" d="m0 0 3 3 19 47 3 9h-11l-3-3-1-2h-19l-2 4-2 1h-10l1-5 20-50z" fill="#F35262"/>
<path transform="translate(367,1304)" d="m0 0 3 4 16 39 5 13v3h-10l-3-3-1-2h-19l-2 4-2 1h-11l10-26 11-27z" fill="#F45263"/>
<path transform="translate(1162,576)" d="m0 0h2l2 5 5 38 2 21 2 10v11h-1l-2-10-14-14-6-4v9l-1 8h-1l-2-22v-16l-1-8v-16l5-5z" fill="#9ABCC3"/>
<path transform="translate(1169,531)" d="m0 0 2 2 8 58 9 59 2 6 1 14 3 21 1 1 2 21 1 6v12h-7l-2-16-3-19-14-112-3-27-3-9-8-4 5-5 4-3h2z" fill="#C8C4B8"/>
<path transform="translate(916,923)" d="m0 0h5v2h23v1l-29 1-6 1 1 45 4 2h-29v-42l2-7 1-1z" fill="#FAE6D2"/>
<path transform="translate(561,555)" d="m0 0 2 1-7 7 11-1 5-1 2 8 1 36-3 5-8 4-9-1-4-2-2-3-1-41 3-3h2v-2z" fill="#FAF8F8"/>
<path transform="translate(457,912)" d="m0 0 16 1 7 2 8 8 1 2 6 3 4 10 4 17v3l-4-1 2 11 1 6-4 1-2-10-3-10-8-13-6-6v-2l-9-3h-14l-10 5-13 13 1-4 7-11 5-5h2l1-4 7-3h14l12 6 5 5-3-4v-2l-5-2-1-2-10-3h-12l-10 2-9 6-7 9-8 16-4 12-2 12h-1v-8l4-15 5-13 7-11 6-8 10-7z" fill="#2A5467"/>
<path transform="translate(1124,604)" d="m0 0 3 2v2l4 2 15 15 3 6v45l-7-6-6-5-5-6-2-1v-2l-4-2-1-1-1-32v-16z" fill="#0B3C52"/>
<path transform="translate(797,918)" d="m0 0h10l10 4 9 7 8 12-1 4-9-11-1-3-4-2-5-4-6-2h-9l-11 4-4 4-3 5-6 8-5 11-3 11-1 8v14l3 16 5 12 7 10 5 4 6 3 5 1h7l10-2 1-3 8-5 1-2h2l2-5 5-10 3-11 1-6v-37h-2v-6l2 1 3 9 1 7v29l-4 16-8 16-7 8-11 7-3 1h-13l-10-5-8-7-7-11-6-16-2-9-1-14 2-17 5-15 7-13 9-10 9-5z" fill="#2F5769"/>
<path transform="translate(637,616)" d="m0 0h3l1 7 1 65h-2l-2-4v-6h-4l-13-30-11-25-1-5 2 4 16-5z" fill="#2E5163"/>
<path transform="translate(567,512)" d="m0 0 3 1-10 9-11 9-11 10-11 9-11 10-11 9-13 12h-2l-2-3-4-1 1-5h2l1-4 5-4h2v-2l6-5 3-5 12-11 11-9 13-12 16-5z" fill="#F45263"/>
<path transform="translate(454,593)" d="m0 0h5l2 2 1 39-4 5-7 3-8-1-5-3-2-15-1-26 16-3z" fill="#FAF8F7"/>
<path transform="translate(831,563)" d="m0 0 2 4 5 2 7 8 67 67 3 1 1-8h1l2 13 3-1 1 3 2 1v2h2l3 6 5 5v2l3 1v2h2l7 8 18 18 3 4 9 2v1l-14-1-8-1v-1l5-1-5-4v-3l-4-2v-2l-4-2-6-5-5-6-5-5-10-9-17-17v-2l-4-2-18-18v-2h-2l-7-8-29-29-2-1v-2l-4-2-2-2-1 11h-1l-3-20z" fill="#255265"/>
<path transform="translate(276,1306)" d="m0 0h14l3 2v10l-13-1-4 3v5l5 3 11 6 5 6 1 10-3 6-7 6-3 1h-12l-9-3-1-7 1-4 6 1 11 1 4-2v-5l-14-8-6-7-1-3v-7l4-8z" fill="#F45263"/>
<path transform="translate(1119,1306)" d="m0 0h13l5 2-1 10-13-1-4 4 1 5 14 7 6 7 1 2v9l-4 7-6 4-3 1h-12l-8-3-1-1v-9l2-2 8 3h8l4-2v-6l-6-2-10-6-5-6-1-8 3-9z" fill="#F45263"/>
<path transform="translate(1215,1305)" d="m0 0 12 1 1 1v11h-16l-5 3h-2l-2 4-2 9 2 9 4 5 7 3h7l8-1 1 9-4 3-3 1h-12l-10-4-7-7-4-7-1-4v-13l3-9 7-8 10-5z" fill="#F45263"/>
<path transform="translate(1e3 853)" d="m0 0h13l13 1 45 2 35 2 24 1 10 1 42 2 15 2 1 5-113-6-44-1-34-2-7-2z" fill="#9AA4A4"/>
<path transform="translate(1e3 826)" d="m0 0h1v8l75 4 52 1 37 2 1 1 31 2 1 5-3 1-71-4-47-2-14-1-47-2-16-1z" fill="#9DA6A6"/>
<path transform="translate(981,1305)" d="m0 0 10 1 2 1v7l-1 4h-15l-7 4-4 8 1 11 4 6 5 3 10 1 8-1v10l-2 2-5 1h-10l-11-4-8-8-4-10v-14l4-10 7-7 9-4z" fill="#F45263"/>
<path transform="translate(798,911)" d="m0 0h12l9 4 8 6v2h2l9 13 6 12 3 13 3 33-2 7-1 4h-2l-1 6-5 14-7 12-7 6-9 5h-19l-2-2 13-2 12-6 8-8 6-10 5-11 3-9 1-7v-26l-3-16-5-12-6-10-8-8-8-4-4-1h-12l-11 3v2h-3l-2 4-5 4-6 10-5 11-2 6-2 12-2 1v-11l4-14 8-15 9-10 8-5z" fill="#144358"/>
<path transform="translate(795,894)" d="m0 0h15l11 3 8 6 11 11 5 10 4 11 4 10 3 5 3 21v14l-2-1-1-17-6-20-7-14-6-9-2-6-5-6v-2l-4-2-5-3v-2l-14-3h-10l-9 2-10 6-10 11-8 13-6 15-2 9-2 3-2 17v14l-1 7v9h-1l-2-11v-29l2-11 7-21 6-12 9-12 11-10 11-5z" fill="#4B6F80"/>
<path transform="translate(767,598)" d="m0 0h1v80l-2 7-5 5-6 3-1 2h-10v-2h-8l-15 3v-2l-3 1-9-4-6-6 1-4 3 5 5 4 2 1h18l4-1 10-18 10-16 4-5 3-3 2-14 1-25z" fill="#234F62"/>
<path transform="translate(1204,873)" d="m0 0h1v32l-4 7-2 4-2 1h-13l-87-5-44-2-44-3-6-4 1-3 16 2 54 3 27 1 28 2 57 3h10l5-3 2-9v-17z" fill="#8ABBC5"/>
<path transform="translate(831,554)" d="m0 0 4 1 81 81-1 9-4-1-73-73v-2l-5-2-2-4z" fill="#0B3C52"/>
<path transform="translate(628,494)" d="m0 0 2 1-13 12-8 7-10 9-14 12-11 10-10 5-5 1-7 3-3 2v-4l6-6 2-4 6-5h2l1-3 5-2 1-3 5-4 5-5 9-8 3-5 5-4 21-7z" fill="#F45263"/>
<path transform="translate(1302,1317)" d="m0 0h11l6 4 5 6 1 3v8l-3 7-7 6-3 1h-10l-7-4-4-6-1-4v-8l4-8 5-4z" fill="#FAF8F6"/>
<path transform="translate(797,915)" d="m0 0h12l8 3 6 4 8 8 8 15 4 15 1 7v26l-2 9-4 12-7 13-9 10-9 6-5 2h-13l-10-4-9-8-8-12-5-13-4-19v-11l3-22 4-11 6-11 6-8 5-5h3v-2zm0 3-10 4-10 9-8 14-5 13-2 9-1 17 2 14 5 15 6 12 8 9 10 6 3 1h13l10-5 8-7 7-11 5-11 3-14v-29l-2-10-6-15-9-12-9-6-8-3z" fill="#B3C0C3"/>
<path transform="translate(850,689)" d="m0 0 4 3 2 7 8 2 57 6 170 17 55 6 22 2 1 3h-9l-62-6-214-22-24-3-7-3-3-9z" fill="#365D6E"/>
<path transform="translate(384,612)" d="m0 0h3l1 5 1 18v19l-4 6-2 1h-9l-6-4-2-39 5-2 1-2z" fill="#DC4E5B"/>
<path transform="translate(600,1306)" d="m0 0h27v11l-15 1-1 1v10h14v11l-14 1-1 21h-11v-55z" fill="#F65263"/>
<path transform="translate(1188,711)" d="m0 0 2 4 1 5v11h7v-6h1l2 20-16-2-57-5-50-5-13-1-3-2-16-1v-2l24 1v-2l18 1 61 6 22 2h18v-10z" fill="#AEB0AC"/>
<path transform="translate(1e3 816)" d="m0 0 49 3 58 3 52 2 37 2 1 5-1 1-59-3-112-6-26-1z" fill="#A5B0AF"/>
<path transform="translate(1152,681)" d="m0 0 7 6 11 11 6 8 2 1v2h2l1 6-3 6-1 5h10l1 7h-2v-3l-26-3-8-3-1-42z" fill="#9BBDC3"/>
<path transform="translate(503,531)" d="m0 0 4 1-14 13-11 9-11 10-11 9-13 12-13 10-11 3v-2l-4 1v-3l16-13 17-14 12-10 14-11 12-10z" fill="#F65263"/>
<path transform="translate(805,413)" d="m0 0h4l-1 7-5 1-2-2-8 1-21 6-6 2-29 9-21 6-23 7h-4v2l-14 5-21 6-10 3-12 3-9 3-11 4-7 3-13 4-16 4h-8l2-3 13-5 208-62z" fill="#B7BEBD"/>
<path transform="translate(340,624)" d="m0 0h4l1 11 1 26-3 7-4 1v2h-8l-4-2-1-3-2-27v-11z" fill="#DB4E5B"/>
<path transform="translate(683,725)" d="m0 0 2 2 2-2v107l-4 1 1 4 3 6 1 13h-8l-1-1-1-13 1-1 1-105 2-10z" fill="#0C89AB"/>
<path transform="translate(1e3 872)" d="m0 0h24l38 2 56 3 42 2 13 1 26 1 1 4-1 1h-10l-34-2-83-4-71-4z" fill="#AFBABB"/>
<path transform="translate(800,388)" d="m0 0h6l6 2 193 41 131 28 23 5 11 4 4 3-1 2-5-3-9-3-46-10-49-10-55-12-57-12-132-28-13-3-1-1-9 1-7 1 4-3z" fill="#306E83"/>
<path transform="translate(928,977)" d="m0 0h70l77 2 91 1 25 3 22 1 47 1v1h-54l-57-2h-53l-27-1-5-1-21-1-81-1h-13l-28 1-2-2 9-1z" fill="#7DB9C7"/>
<path transform="translate(1096,558)" d="m0 0h5l1 3h2v2l4 2 1 4h2v3l-30 7-16 4h-3v5l-3-1 1-4-7-1-2-4-2-1v-2l10-5 21-7z" fill="#0E4056"/>
<path transform="translate(454,944)" d="m0 0h6l10 5 12 9 2 2 2 5 4 9 1 7v20l-2 11-1-3h-6l-1 6-3 3-2-1-2-5-2-1 1-5 2-4 1-3-1-9 1-3 5-2 2-7-2-5-5-1-5-11-3-3 1-5h2l-5-4-6-2h-8l-1-2z" fill="#B3BEC1"/>
<path transform="translate(472,1306)" d="m0 0h11v59l-5-3-12-13-8-9-1-4 2-4 5 4h4l4 2z" fill="#F35262"/>
<path transform="translate(578,555)" d="m0 0h3l8 17 13 30 14 32 11 25 9 21 2 5v11l-4-5-13-31-10-22-10-24-7-16-13-29-3-11-2-2z" fill="#CDC7BA"/>
<path transform="translate(406,560)" d="m0 0 3 1-17 12-16 11-20 14-16 11-20 14-14 10-9 2-4 3-4-1 11-8 16-11 19-13 15-11 15-10 23-16 8-5z" fill="#F45263"/>
<path transform="translate(817,585)" d="m0 0 2 3 3 21 1 4v11l-4 8-1 6 2 5-4 1-4-1-3 6-2 6-3 2v-48l2 2 4 7 2-3 2-10v-11l2-3z" fill="#126782"/>
<path transform="translate(688,666)" d="m0 0h1l1 68 3-3v8h-2v3 2h-2l1 7 1 56 4 5v9l-2 4 2 3v10l1 3 2-15 1-35h1v63h10v1l-22 1z" fill="#9DBDC3"/>
<path transform="translate(887,701)" d="m0 0 11 1 4-1 12 1 1 1 15 1 10 1 4 1 30 2 8-1h37l5-1-3 7v3l-2 1h-9l-108-11-16-2z" fill="#C8C4B8"/>
<path transform="translate(1e3 845)" d="m0 0h1l1 6 47 3v1h-22l-26-2v5h6v1h-6l1 11 39 2 56 1 20 1 8 1 33 1h29l7-1 2 1v3h5v-8h1v28l-2 1-2-1-38-2v-1h41v-9h-11v-1l9-1v-3l-26-1-29-2-47-2-60-3-37-2z" fill="#366071"/>
<path transform="translate(686,573)" d="m0 0h1v141l-1-3-5-2v-31l1-5-1-14v-25l2-50h2z" fill="#0C89AB"/>
<path transform="translate(1011,791)" d="m0 0h15l72 4 89 5 10 1 3 2 3 7v30h-1v-7h-2v-6l-60-3v-1h26l34 2v-11h-10l-7-1v-1h17l-3-7-1-1-162-9-11-1h-11l-6 5 1-4z" fill="#3D6171"/>
<path transform="translate(798,959)" d="m0 0 5 1 6 7 1 3v15l-4 9-4 4h-7l-5-6-1-2v-18l4-9z" fill="#0E3E54"/>
<path transform="translate(1122,694)" d="m0 0 7 6 19 19 3 1v3h-14l-33-4 4-7 8-10 4-7z" fill="#2A5466"/>
<path transform="translate(802,905)" d="m0 0 10 1 6 3 9 7 5 5 1 3h2l1 5h2l1 4h2l6 12 5 19 1 12v15l-2 14-3 9-1 6-7 14-7 9-4 4-2-1 2-4 2-1 5-9 7-14 4-19 2-6-3-32-4-15-8-15-5-6v-2h-2v-2l-4-2-7-5-11-3-1-3-1 2-2-1z" fill="#4B6F80"/>
<path transform="translate(764,497)" d="m0 0h14l2 7-23 4-26 5-25 4h-4v-2l-7-2 1-2h4v-2l10-1 1-1 20-3 6-2z" fill="#148CAC"/>
<path transform="translate(460,933)" d="m0 0 10 1 8 4 8 9 7 14 2 10 1 12v22l-3 14-8 16-8 9-9 5h-13l-8-4-8-8-7-12-4-16 1-4 6 18 7 11 5 5 5 4 6 2h8l10-5 7-8 6-12 3-11 1-6v-24l-3-15-5-12-9-10-7-4-7-1-9 2-9 7-7 11-3 6h-1l1-7 7-11 7-7 8-4z" fill="#99BCC3"/>
<path transform="translate(1044,1306)" d="m0 0h11v57h-10l-1-1z" fill="#F65263"/>
<path transform="translate(930,711)" d="m0 0 52 5 87 9 1 3h-15l-9-1v2h16l1 2-18-1-31-3v-1l8-1-21-3-22-1-14-2-19-1-16-3-1-3z" fill="#B1B5AD"/>
<path transform="translate(958,881)" d="m0 0h7l6 4 4 8-1 9-6 7-7 2-7-3-5-6-1-2v-9l6-8z" fill="#CDC7BA"/>
<path transform="translate(1023,896)" d="m0 0h29l132 6 18 1v5l-6 4-27-1-40-2v-1h32l3-1 1-2h-12v-2l-47-2-83-4z" fill="#3E6677"/>
<path transform="translate(1014,794)" d="m0 0 19 1 37 1 106 6 5 1 14 1 1 3h-19l-114-7-36-2-13-2z" fill="#ECE9E3"/>
<path transform="translate(386,656)" d="m0 0 2 4 10 17 2 4 2 1v-11h1v16l5 12 13 23 9 16v2l3 1 5 9v3h-6l-6-9-4-10-10-18-10-19-2 1-9-17-10-18-1-2 5-2z" fill="#CCC2B7"/>
<path transform="translate(923,647)" d="m0 0 5 1 32 32 7 8 13 13 5 2v1h-8l-9-2-12-13-16-16v-2h-2l-7-8-3-3-1-5h-2l-4-4z" fill="#0B3C52"/>
<path transform="translate(1231,890)" d="m0 0h9l6 5 3 8-1 7-4 6-6 3-8-1-5-4-3-8 1-8 6-7z" fill="#CDC7BA"/>
<path transform="translate(456,919)" d="m0 0h12l10 3 9 9 1 4-5-5-10-6-3-1h-14l-7 3-1 3-6 5-8 12-6 15-3 14-1 8-4 3-1-3v-15l4-16 4-12 7-10h2l2-4 11-6z" fill="#637C87"/>
<path transform="translate(1e3 875)" d="m0 0 176 9 13 1v1h-17l-18-1-49-1-49-3h-19l-1-1-31-1-3-1 1 3 4 1v4l21 2 48 2 18 2v1h-21l-33-2-40-2z" fill="#365E6F"/>
<path transform="translate(702,585)" d="m0 0h1l1 100 6 6 12 4 14-3 8 1v2h10l1-3 7-4h2l2-4 1-6h1l2 6 1 4-8 7-11 3h-40l-7-4-5-8v-29l1-71z" fill="#154458"/>
<path transform="translate(1027,604)" d="m0 0 2 3 1 6 8 7 5 4 4 4v2l4 2 11 11 1-34h1l1 48v53h-1l-1-51-7-8-22-22-2-1-2 4-3-24z" fill="#2B5567"/>
<path transform="translate(1027,525)" d="m0 0h16l18 3 38 6 34 5v1h-6v4l-10-1-32-5-18-3-9-2-22-3h-9l-6 7-1-4z" fill="#1B485C"/>
<path transform="translate(697,882)" d="m0 0 2 1 1 85-1 1-7-1v-31l1-32 1-14z" fill="#894C5D"/>
<path transform="translate(460,973)" d="m0 0 5 3 3 4 1 4v13l-4 9-2 2h-7l-4-5-1-4v-15l4-8z" fill="#0F3F54"/>
<path transform="translate(835,947)" d="m0 0 2 1 3 9 1 7v29l-4 16-8 16-7 8-11 7-3 1h-13l-7-3 2-1-5-5-1-2 6 2 7 2h7l10-2 1-3 8-5 1-2h2l2-5 5-10 3-11 1-6v-37h-2z" fill="#31596B"/>
<path transform="translate(1065,649)" d="m0 0 8 6v2l4 2v2l4 2 4 4v2l4 2 4 5 2 1v2l3 1v2l4 2 3 3v2h2l5 8v3l-3 1-6-4-14-14-8-7-7-8-6-5-2 1-2-9z" fill="#9BBDC4"/>
<path transform="translate(687,652)" d="m0 0h1v200h-1l-1-9-3-6-2-2h2v-2l4-1-1-6v-97l-3-2-2 9-1 105h-1v-109l1-23 3-1 3 3z" fill="#44B1CD"/>
<path transform="translate(654,434)" d="m0 0h5l-3 2-15 5-21 6-25 8-55 17-42 13-18 6-21 6-21 7-21 6-20 6-1 1h-5l1-2 174-54 30-9 28-9z" fill="#297189"/>
<path transform="translate(490,974)" d="m0 0h1l1 5h2v24l-3 14-5 12-7 9-8 6-5 2h-8l-9-4-5-4-7-10-4-8-3-10 1-3 2-2 3 12 6 12 6 7 5 3 4 1h7l5-2h3v-2l6-4 6-10 4-10 2-11z" fill="#325A6B"/>
<path transform="translate(457,912)" d="m0 0 16 1 7 2 8 8 1 2 6 3 4 10 1 8-4-5-3-1-3-8-6-9-5-1-10-3h-14l-10 4-8 5-7 9-8 16-4 12-2 12h-1v-8l4-15 5-13 7-11 6-8 10-7z" fill="#265467"/>
<path transform="translate(1054,901)" d="m0 0h36l18 1 8 1h27l22 2-1 3-8 1-45-1-10-1-27-1-3-1-25-2v-1z" fill="#0E4056"/>
<path transform="translate(845,968)" d="m0 0h1l1 8v18l-2 15-6 16-7 12-7 6-9 5h-19l-2-2 13-2 12-6 8-8 6-10 5-11 3-9 2-11z" fill="#104055"/>
<path transform="translate(797,899)" d="m0 0h10l9 2 5 2 3 3 6 4 7 9-1 3-9-10-9-6-5-2-13-1-12 3-9 6-4 2-2 4-6 8-8 16-4 14-3 25-1 2h-2v-13l2-14 4-15 8-16 7-9 9-10 12-6z" fill="#AFBCBE"/>
<path transform="translate(876,711)" d="m0 0 27 1 13 2 25 2 5 1 19 1 14 2 22 1 26 4v1h-24l-84-8-35-3-10-2z" fill="#B3B3AC"/>
<path transform="translate(797,391)" d="m0 0h8l4 11v11h-6l-4-9v-2l-19 1-13 2-10 3h-5l1-3z" fill="#F9F7F5"/>
<path transform="translate(672,856)" d="m0 0 3 2v118l-1 1h-36l-2-2 36-1z" fill="#F0E7DD"/>
<path transform="translate(758 1e3)" d="m0 0h4l5 16 5 10 8 10 9 6 6 2 10 1v1l-8 1h19l12-7 4-5 6-10 6-16 2-4-1 9-4 11-7 12-3 5h-2l-2 5-6 3-5 1-3 1h-13l-9-2-3-3h-4v-2h-2v-2l-4-2-6-10-4-5-3-6-3-7v-3h-2l-2-5z" fill="#275265"/>
<path transform="translate(1119,569)" d="m0 0h3v29l-2 1-8-7-12-12-2-4-2-1 5-2z" fill="#88BCC1"/>
<path transform="translate(1233 1e3)" d="m0 0h26v1h-11l-2 5-7 11-11 16-10 15-4 5-1 3h-5l2-4h2l2-5 2-1 1-3h2l3-10 6-13 3-12 1-7z" fill="#21C0E8"/>
<path transform="translate(1095,497)" d="m0 0 9 1 31 6 3 4v5l-2 1-38-6-3-1v-2l-2-1v-5z" fill="#CDC7BA"/>
<path transform="translate(835,451)" d="m0 0 10 1 30 6 3 3v6l-3 1-30-5-9-2-2-5-1-2z" fill="#CDC7BA"/>
<path transform="translate(1115,859)" d="m0 0h18l10 1 42 2 15 2 1 5-76-4-2-5h-8z" fill="#9BBCC2"/>
<path transform="translate(1027,598)" d="m0 0 3 2v2l4 2 29 29v11l-7-6-7-7-2-1v-2l-4-2v-2l-4-2-7-7-3-2-2-9z" fill="#0B3C52"/>
<path transform="translate(799,922)" d="m0 0h10l6 3 8 6 10 13 2-1 1 8-1 2h2l1 6v8h-1l-2-6-5-9v-2h-2l-2-5h-2l-5-6-13-10-6-1h-8l-7 4-2-1 7-6z" fill="#607883"/>
<path transform="translate(803,674)" d="m0 0 1 4-2 7-4 3 6 4 5 2 4 5-2 3h-2v5l-6 2-7-1v-3h-2l-2-13v-3l-9-2-1-2 4-2 15-3z" fill="#126782"/>
<path transform="translate(1203,855)" d="m0 0h1v15h-11l-128-7v-1h23l110 6 3 1-1-5-57-3-10-1-24-1v-1h46l12 1 33 1 3 1z" fill="#5C7683"/>
<path transform="translate(367,1304)" d="m0 0 3 4 9 22-1 2-4-1-1-5h2v-2l-3-1 1-1h-5l-3 7-2 1v2l2 1 1 2-3 11-1-3-3 1h-4l-3 1-2 6-2-1 16-40z" fill="#DC4E5B"/>
<path transform="translate(1012,793)" d="m0 0h11l28 2v1h-18l-19-2v2l135 8 28 2h18v-2h-14v-1h15l3 4v3l-12-1v2h-5l-3-2-21-1-17-1-20-2-23-1-39-3-34-2-14-1v-4z" fill="#B3BDBF"/>
<path transform="translate(385,876)" d="m0 0h14v1h-5v115h-3v-115l-5 1-22 1 4-2z" fill="#DED5C8"/>
<path transform="translate(840,710)" d="m0 0 4 1v1l-11 2-9 3-32 8h-2v122h5v1h-9l2-1v-123l7-3 27-7 10-2 1-1z" fill="#AFB1AB"/>
<path transform="translate(871,696)" d="m0 0h17l13 2 27 2 17 2 2 1 24 2 5 1h6l-4 2-9 1-25-2-8-2h-13l-8-1-1-1-15-1-1 1-9-1-12-3-6-1z" fill="#ABADA8"/>
<path transform="translate(957,517)" d="m0 0 16 2 12 2v6l8 7 2 13-2 3-20-20v-2l-6-4-7-5z" fill="#47B3CE"/>
<path transform="translate(967,591)" d="m0 0 5 1 4 4-2 6-8 4-7 3-6 4-7 1-1-1v-8l5-5 5-2 10-6z" fill="#48B4CF"/>
<path transform="translate(809,894)" d="m0 0 12 3 8 6 11 11 5 10 4 11 4 10 3 5 3 21v14l-2-1-1-17-6-20-7-14-6-9-2-6-5-6v-2l-4-2-5-3v-2l5 2 6 5 2 2-6-7-10-6-10-2z" fill="#4A6E7F"/>
<path transform="translate(816,522)" d="m0 0 2 2 3 15 4 24 1 15 1 1 1 12 1 9 2 6v12l2 5 1 1v20l4-2v7l-1 2v15l-2-3-5-34-12-86-2-14z" fill="#C8C5BB"/>
<path transform="translate(1128,895)" d="m0 0 34 1 38 2 3 2-2 4-82-4v-1l23-1h-8l-6-2z" fill="#9BBCC3"/>
<path transform="translate(454,944)" d="m0 0h6l10 5 12 9 2 2 2 5 4 9 1 7v20h-1l-1-6v-7l-2-3-1-9-3 2-2-5-5-1-5-11-3-3 1-5h2l-5-4-6-2h-8l-1-2z" fill="#9BBCC3"/>
<path transform="translate(455,918)" d="m0 0h14l10 3 6 2 8 13v4l4 1 2 5h2l2 12-4-1 2 11 1 6-4 1-2-10-3-10-6-10 1-7-2-7-2-4-5-2-1-2-10-3h-15z" fill="#496E7F"/>
<path transform="translate(637,605)" d="m0 0 3 1 1 9-4 2-14 2-12 3-3-9 1-3z" fill="#0B3C52"/>
<path transform="translate(1e3 816)" d="m0 0 49 3 24 1 4 3h-7v2l-26-1-45-2z" fill="#9ABCC3"/>
<path transform="translate(786,1304)" d="m0 0 3 3 1 9-2 6h-2v2h-2l1 3-1 4v2l3 1h-2l-3 12-5-3v-2l-5 4-3 6-2-1 14-34z" fill="#DC4E5B"/>
<path transform="translate(800,388)" d="m0 0h6l6 2 98 21 29 6-2 2-9-1-108-23-13-3-1-1-9 1-7 1 4-3z" fill="#366E82"/>
<path transform="translate(1287,946)" d="m0 0 2 1v34l-7 6h-4v2l-9 2h-6v8h-1v-11h-54l-58-1v-1h123l11-3 2-2z" fill="#14718D"/>
<path transform="translate(795,519)" d="m0 0h10l4 5-1 3-9-3-2 4-2 3h-2v60l-4-1 1-67z" fill="#15485D"/>
<path transform="translate(1123,591)" d="m0 0 7 6 12 13 5 4v-10h1l1 8v19l-3-4-7-8-10-10-5-4h-1z" fill="#285365"/>
<path transform="translate(625,859)" d="m0 0h8v108h-2l-1-12v-95h-5z" fill="#EFEAE3"/>
<path transform="translate(805,413)" d="m0 0h4l-1 7-5 1-2-2-8 1-21 6-6 2-29 9-21 6-19 6-3-1 10-5 87-26z" fill="#B2B3AD"/>
<path transform="translate(1171,574)" d="m0 0h1l6 51 1 23-1 7h-1l-1-7-2-5-5-46-1-13 2 1z" fill="#2A5466"/>
<path transform="translate(456,930)" d="m0 0h14v2l6 2 1 2-7-1-10-1-8 3-6 4-6 7-6 10-5 14-3 12h-1v-16l5-15 2-4 15-15z" fill="#174559"/>
<path transform="translate(1e3 855)" d="m0 0h1v48l6 2 1 1 44 3-1 2h-43l-6-2-3-3v-2l-3 1-2-4 1-8v-7l3-6 1-6z" fill="#815262"/>
<path transform="translate(764,1007)" d="m0 0 3 1 5 11 6 10 8 7 9 4h13l10-5 7-6 1-2h3l-1 4-8 8-12 6h-13l-10-4-9-8-8-12-4-10z" fill="#C7CCCA"/>
<path transform="translate(419,983)" d="m0 0 2 2 3-2 1 34 3 10 2 4v3l-6 1-6-20v-31z" fill="#607883"/>
<path transform="translate(715,537)" d="m0 0 2 1-1 1 4 2-7 4-5 5-3 4-1 7-1 24-1 1-1 71h-1v-94l1-14 3-6 5-4z" fill="#32586A"/>
<path transform="translate(1011,822)" d="m0 0h18l152 8 14 1v1h-19l-73-4-65-2-25-2z" fill="#5B7682"/>
<path transform="translate(930,711)" d="m0 0 52 5 25 3v2l-6 1-22-1-14-2-19-1-16-3-1-3z" fill="#B2B5AD"/>
<path transform="translate(1020,841)" d="m0 0h19l27 1 36 2 62 3 36 2v-5l-31-1v-1h29l3 1v2h2l-1 5-1 1-22-1-119-6h-25l-15-1z" fill="#5B7682"/>
<path transform="translate(1203,871)" d="m0 0h1v28l-2 1-2-1-38-2v-1h41v-9h-11v-1l9-1v-3l-26-1-29-2-47-2-35-2v-1h25l97 5 16 1z" fill="#4D7888"/>
<path transform="translate(1149,618)" d="m0 0h2l11 14 1 3 5 2 4 4v3h2l1 6v11h-1l-2-10-14-14-6-4v9l-1 8h-1l-2-22z" fill="#9ABCC3"/>
<path transform="translate(1146,824)" d="m0 0h17l37 2 1 5-1 1-59-3 1-3z" fill="#9BBCC3"/>
<path transform="translate(302,1060)" d="m0 0h13v1l-5 1-21 1 26 1 2 4h-19l-53-3-2-2z" fill="#305B6D"/>
<path transform="translate(1e3 853)" d="m0 0h13l13 1 26 1 1 3 4 2v1h-12l-39-2-6-1z" fill="#9ABCC3"/>
<path transform="translate(860,693)" d="m0 0h18l85 9 37 4v1l-7 1h-11v-2l-7 1-14-2-14-1-2-1-28-3-26-2-16-3-15-1z" fill="#B1BFBE"/>
<path transform="translate(1256,888)" d="m0 0 7 3 1 3v10h-2v-3h-3v9l-3 6-6 1-2-4 1-5v-9l5-10z" fill="#894B5C"/>
<path transform="translate(1141,879)" d="m0 0h21l13 1 26 1 1 4-1 1h-10l-69-4v-1h19z" fill="#A7B0AE"/>
<path transform="translate(1149,608)" d="m0 0 8 6 6 5v2h2l5 5 1-3 2 21-4-5-6-4-11-14-1-3h-2z" fill="#87BCC1"/>
<path transform="translate(799,524)" d="m0 0h5l6 7v5l-6 5-7 11h-3v-21z" fill="#16C4F0"/>
<path transform="translate(1122,694)" d="m0 0 7 6 19 19 3 1v3h-9l-6-3-11-13-3-3v-2l-4-1 2-6z" fill="#0B3C52"/>
<path transform="translate(821,918)" d="m0 0 6 3v2h2l9 13 6 12 3 13 3 33-2 7-2 4v-29l-1 13h-1l-1-22-3-16-5-12-6-10-10-10z" fill="#245063"/>
<path transform="translate(1282,1060)" d="m0 0h12l54 2 18 1v2l-68 3h-17v-1l14-2 18-1-1-1-21-1-9-1z" fill="#427081"/>
<path transform="translate(639,502)" d="m0 0h2l1 67v39l1 14v47l-1 14h-1l-1-74z" fill="#809195"/>
<path transform="translate(1071,723)" d="m0 0h9l66 7 22 2 1 3h-9l-62-6-20-2v-2l-7-1z" fill="#4E6E7C"/>
<path transform="translate(559,863)" d="m0 0h18v1l-7 1h-10l1 56v45l-1 10h-2v-112z" fill="#EEE5DB"/>
<path transform="translate(755,951)" d="m0 0h1l-1 44 2 13-2 3-4-6-4-18v-11l2-17 2-2-2 26h2l3-27z" fill="#5C7683"/>
<path transform="translate(1e3 826)" d="m0 0h1v8l59 3v1l-11 1h-9v2h8v1h-12l-36-2z" fill="#9ABCC3"/>
<path transform="translate(928,977)" d="m0 0h70l43 2v1h-92l-28 1-2-2 9-1z" fill="#78BBCA"/>
<path transform="translate(956,825)" d="m0 0h12l3 4-13 2-3 1-3 8 2 9 6 7h10l-2 2-5 2h-6v-2l-5-2-5-7v-13l4-7z" fill="#224A5F"/>
<path transform="translate(763,920)" d="m0 0 1 3-2 5-7 16-3 12-2 3-2 17v14l-1 7v9h-1l-2-11v-29l2-11 2 2 2-10 2-3 3-11 7-12z" fill="#245063"/>
<path transform="translate(1038,700)" d="m0 0 1 3 1 7-2 6-5 2h-12l-2-2 2-2-1-2h2l-1-3h2l1-5 8-3h5z" fill="#B3B5AC"/>
<path transform="translate(1123,581)" d="m0 0 7 6 15 15 2 1v11l-4-2-10-10-6-7-4-4z" fill="#0B3C52"/>
<path transform="translate(995,715)" d="m0 0 15 1 51 5 17 3 10 1v1h-19l-77-8z" fill="#3C6070"/>
<path transform="translate(613,470)" d="m0 0 8 1v2l-9 3-7 3-13 4-16 4h-8l2-3 13-5z" fill="#B6BDBD"/>
<path transform="translate(836,943)" d="m0 0h2l4 12 2 12v26l-2 9-4 12-7 13-2 1-2-2 6-10 5-13 2-10v-29l-2-10-3-10z" fill="#9ABBC2"/>
<path transform="translate(849,686)" d="m0 0 8 4 13 2v1l12 2v1h-11v2l3-1 5 2 8 1-1 4-13-1-15-2-4-3-2-7-3-3z" fill="#B5B8B0"/>
<path transform="translate(1204,873)" d="m0 0h1v32l-4 7-2 4-2 1h-13l-50-3v-1h48l-11-1v-1h25l5-3 2-9v-17z" fill="#76BCCC"/>
<path transform="translate(912,1074)" d="m0 0 115 1v1l-94 1h-108v-1l77-1z" fill="#466978"/>
<path transform="translate(518,476)" d="m0 0h6l-3 2-15 5-21 6-19 6-55 17-14 4-1 1h-5l1-2 116-36z" fill="#2D758C"/>
<path transform="translate(1228,840)" d="m0 0h10l-1 2h-3v2l-6 5-1 2v12l5 6 12 1v2l-5 2h-8l-3-1v-2l-4-2-3-7v-14z" fill="#114156"/>
<path transform="translate(886,505)" d="m0 0 6 1 8 5 7 6 3 4 1-12h1l1 21v15h-1l-1-13-14-14-8-7v-2l-3-1z" fill="#225266"/>
<path transform="translate(460,940)" d="m0 0 9 1 8 5 7 9 4 6 2 8v5l-2-3-6-12-13-10-9-4-9 1-5 4 2-4 5-4z" fill="#5C7683"/>
<path transform="translate(1154,842)" d="m0 0h15l31 2 1 5-3 1-51-3v-1l17-2-10-1z" fill="#9BBDC4"/>
<path transform="translate(1101,908)" d="m0 0h28l40 2 2 1 13 1-4 2h-51v-1l-5-1v-2l-3 1h-9l-11-2z" fill="#96BCC4"/>
<path transform="translate(987,600)" d="m0 0 7 6 16 16 4 5 1 6h-3l-28-28v-3z" fill="#245063"/>
<path transform="translate(688,666)" d="m0 0h1l1 68 3-3v8h-2v3 2h-2l1 7v102l1 2-3 1z" fill="#8DBCC1"/>
<path transform="translate(497 1e3)" d="m0 0h1v9l-3 12-8 16-9 8-7 3h-14v-1l9-1 11-6 8-9 7-15 3-14z" fill="#17455A"/>
<path transform="translate(1233,838)" d="m0 0 7 1 7 4 1 4-9-2-5 4-2 4v10l1 4 3 1h9 3l-2 3h-8l-7-2-5-6v-12l6-7h2v-2l3-1-7-1z" fill="#C4C3B9"/>
<path transform="translate(826,620)" d="m0 0 4 2 5 32 4 30v5l-2-2-1 5h-1l-2-23-7-44z" fill="#F3F1EF"/>
<path transform="translate(457,912)" d="m0 0h6l2 2-10 2 3 2-12 4-9 6-7 9-8 16-4 12-2 12h-1v-8l4-15 5-13 7-11 6-8 10-7z" fill="#245063"/>
<path transform="translate(1199,725)" d="m0 0h1l3 17 5 5 14 10 33 24 14 10 9 7v43h-1l-1-42-11-8-18-13-19-14-14-10-13-9-2-13z" fill="#236E86"/>
<path transform="translate(1177,657)" d="m0 0h3l2 13 1 7 1 4 3 29-1 7-2-2-2-8-3-26-2-10-1-3z" fill="#0E3E54"/>
<path transform="translate(937,418)" d="m0 0h7l93 20v1h-10l-65-14-24-5z" fill="#307287"/>
<path transform="translate(1184,801)" d="m0 0h13l3 2 3 7v30h-1v-7h-2v-6l-60-3v-1h26l34 2v-11h-10l-7-1v-1h17l-3-7-1-1-12-1z" fill="#426676"/>
<path transform="translate(1e3 900)" d="m0 0 17 2 33 2-4 2 4 2h-31l-13-1-6-4z" fill="#83BCC7"/>
<path transform="translate(1061,880)" d="m0 0h35l82 4 13 1v1h-17l-18-1-49-1-46-3z" fill="#456675"/>
<path transform="translate(778,926)" d="m0 0 2 3-7 10-6 13-4 15-1 17 2 14 2 9-3 1-4-19v-11l3-22 4-11 6-11z" fill="#98BCC3"/>
<path transform="translate(1188,711)" d="m0 0 2 4 1 5v11h7v-6h1l2 20-16-2-13-1v-1h18l-2-3-11-1v-1l12-1v-10z" fill="#B2B6AF"/>
<path transform="translate(425,944)" d="m0 0 1 3-4 11-2 10-1 15v32l1 10-2-3-3-14v-31l3-16z" fill="#3D687A"/>
<path transform="translate(1101,573)" d="m0 0 6 1 2 5 7 8 5 2 1 9-2 1-8-7-12-12-2-4-2-1z" fill="#9ABCC3"/>
<path transform="translate(763,986)" d="m0 0h1v5h2l3 13 5 12 7 10 5 6 4 3v2l-5-1-8-7-7-11-6-16-1-4z" fill="#295467"/>
<path transform="translate(640,501)" d="m0 0h2l2 5-1 108h-1l-1-6v-39z" fill="#CCC6B9"/>
<path transform="translate(1025,484)" d="m0 0 8 1 3 4-1 7-5 4h-7l-2-4v-8l1-3z" fill="#CDC7BA"/>
<path transform="translate(925,469)" d="m0 0h7l5 3 1 2v6l-6 5h-6l-3-6 1-9z" fill="#CDC7BA"/>
<path transform="translate(1204,834)" d="m0 0 1 3h2v17l5 1 1-6h1v13l-1-2h-7l1 45-3 7-5 4v-3l4-5 1-3z" fill="#CAC7BD"/>
<path transform="translate(850,994)" d="m0 0 2 1-1 10-3 9-1 6-7 14-7 9-4 4-2-1 2-4 2-1 5-9 7-14 4-19z" fill="#4A6F80"/>
<path transform="translate(1038,703)" d="m0 0 2 1 2 6 16 3v1h-6l1 2 7 2 1 3h-11l-17-2 1-3 3-1 2-6z" fill="#C4C2B7"/>
<path transform="translate(690,1317)" d="m0 0h10l4 2v9l-3 2h-12v-12z" fill="#F8F5F2"/>
<path transform="translate(1e3 872)" d="m0 0h24l38 2 35 2v1h-19l-47-2h-8l7 1v1h-12l-17-1z" fill="#9ABCC3"/>
<path transform="translate(1166,862)" d="m0 0h19l15 2 1 5-40-2v-2l5-2z" fill="#9BBDC4"/>
<path transform="translate(687,726)" d="m0 0h1v126h-1l-1-9-3-6-2-2h2v-2l4-1-1-6v-81z" fill="#48B4CF"/>
<path transform="translate(820,1026)" d="m0 0 2 1-10 9 3 1-4 3-3 1h-13l-7-3 2-1-5-5-1-2 6 2 7 2h7l10-2 1-3z" fill="#4D7182"/>
<path transform="translate(794,897)" d="m0 0h19l7 2 10 7 6 7h-3l-5-5-5-4-9-3-7-1h-10l-9 2-10 6-4 4-5 3-2 1 2-4 7-7 9-5z" fill="#2F5869"/>
<path transform="translate(1141,983)" d="m0 0 65 2v1h-136v-1l70-1z" fill="#0E7B9A"/>
<path transform="translate(550,864)" d="m0 0h8l1 48v34h-1l-1-31-1-49-45 3h-7v-1h6v-2z" fill="#DCD5C9"/>
<path transform="translate(757,402)" d="m0 0h5l-3 2-15 5-17 5-29 9-15 5-21 6-3-1 10-4 39-12 43-13z" fill="#2C7188"/>
<path transform="translate(1e3 821)" d="m0 0h1v11l32 2 28 1 2 1 36 2v1h-24l-72-4-3-1-1-12z" fill="#436675"/>
<path transform="translate(831,661)" d="m0 0 2 2 2 13v17l-4 8-8 6h-2l2-4 6-9 2-16v-7l-1-8z" fill="#124156"/>
<path transform="translate(1088,930)" d="m0 0h27l3 1 44 1-1 2h-56l-17-3z" fill="#FAF1E8"/>
<path transform="translate(460,933)" d="m0 0 10 1 8 4 2 4-1 3-6-5-8-3-12 2-9 7-7 11-3 6h-1l1-7 7-11 7-7 8-4z" fill="#9DBDC3"/>
<path transform="translate(600,1306)" d="m0 0h27v11h-5l1-7-3-2h-9l-10 1v48h-1l-1-28v-22z" fill="#DB4D5B"/>
<path transform="translate(456,919)" d="m0 0h12l10 3 9 9 1 4-5-5-10-6-3-1h-14l-10 5-7 6-6 8-1-2 4-7h2l2-4 8-7z" fill="#9DBAC0"/>
<path transform="translate(1081,827)" d="m0 0h22l73 4 24 1 2 1v5l-2-1-1-3-41-1-5-1-72-4z" fill="#245063"/>
<path transform="translate(1012,793)" d="m0 0h11l28 2v1h-18l-19-2v2l83 5 1 2h-11l-62-4-14-1v-4z" fill="#B5BFC2"/>
<path transform="translate(962,829)" d="m0 0h5l-3 2-4 1-2 6v10l4 5 7 1 5-1-2 4h-12l-7-8-2-9 4-9z" fill="#CCC5B8"/>
<path transform="translate(465,975)" d="m0 0 5 1 4 6v3h2l1 4-1 1v9l2 1h-2l-1 2-6-1-2 1 1-5v-13z" fill="#F4EEE7"/>
<path transform="translate(678,1306)" d="m0 0h23v1l-17 2-3 3-1 6v18l-1 25 10-2v4h-11z" fill="#DB4D5B"/>
<path transform="translate(1027,525)" d="m0 0h16l10 2 3 3 6 2-4 1-22-3h-9l-6 7-1-4z" fill="#13536B"/>
<path transform="translate(843,921)" d="m0 0 2 3 4 11 4 10 3 5 3 21v14l-2-1-1-17-6-20-4-9-1-7-3-6z" fill="#4A6F80"/>
<path transform="translate(424,975)" d="m0 0h1l1 5h1v19l3 16 4 12 2 5-4-2-7-14-1-6z" fill="#285365"/>
<path transform="translate(772,546)" d="m0 0 4 1v36l-1 8h-1l-1-9-1-2v-22l-1-4-1-7z" fill="#255063"/>
<path transform="translate(1109,858)" d="m0 0h46l12 1 33 1 3 1-1 2-13-1-46-1-10-1-24-1z" fill="#3C6171"/>
<path transform="translate(826,1027)" d="m0 0h3l-1 4-8 8-12 6h-13l-4-2 3-2 14-1 10-5 7-6z" fill="#E0DDD7"/>
<path transform="translate(834,1008)" d="m0 0h2l-1 6-6 11-7 8-6 4h-5l4-5 6-5 3-5h2l2-5 4-8z" fill="#2C5567"/>
<path transform="translate(821,957)" d="m0 0 4 2 3 3 1 6-5 7-5-1-2-5 2-9z" fill="#164459"/>
<path transform="translate(1006,590)" d="m0 0 3 1 2 12v7l-14-12 1-4z" fill="#245063"/>
<path transform="translate(432,960)" d="m0 0 2 3-1 4-2 12-1 28-3-1-1-7v-12l3-19z" fill="#678490"/>
<path transform="translate(797,899)" d="m0 0h10l9 2 5 2 3 3 6 4 7 9-1 3-9-10-9-6-5-2-13-1-8 1-1-4z" fill="#9ABCC3"/>
<path transform="translate(1006,897)" d="m0 0h14l14 1 9 2v3l-35-1v-3h-2z" fill="#0D3E54"/>
<path transform="translate(805,525)" d="m0 0h4l3 4 3 23 7 43v5l-2-4-1-1-3-16-5-35-1-11-4-6z" fill="#255367"/>
<path transform="translate(1096,558)" d="m0 0h5l1 3h2v2l4 2 1 4h2v3h-10l-6-7-4-5z" fill="#0C3D53"/>
<path transform="translate(797,1008)" d="m0 0h6l2 6-1 8-3 3-5-1-1-1v-14z" fill="#124156"/>
<path transform="translate(680,836)" d="m0 0 4 1 3 6 1 13h-8l-1-1-1-13z" fill="#1088A8"/>
<path transform="translate(1287,946)" d="m0 0 2 1v34l-7 6h-4v2l-9 2h-6v-4l14-2 7-2 2-2z" fill="#6694A2"/>
<path transform="translate(1069,977)" d="m0 0h36l19 1 4 2h-53l-6-2z" fill="#FEEFE1"/>
<path transform="translate(1028,721)" d="m0 0 41 4 1 3h-15l-20-2-6-2z" fill="#B0B7B2"/>
<path transform="translate(850,689)" d="m0 0 4 3 2 7 8 2 27 3 9 2v1h-16l-24-3-7-3-3-9z" fill="#3C5F6F"/>
<path transform="translate(834,455)" d="m0 0h1l1 5 20 4 19 3v3h-8l-21-4-13-3-1-4z" fill="#566777"/>
<path transform="translate(805,413)" d="m0 0h4l-1 7-5 1-2-2-8 1-21 6-4 1h-7l3-2z" fill="#B2B2AD"/>
<path transform="translate(1e3 816)" d="m0 0h41l29 2 2 2h-24l-48-3z" fill="#3B6273"/>
<path transform="translate(1105,453)" d="m0 0 12 2 39 8 12 4 6 4-1 2-5-3-9-3-46-10-7-2z" fill="#2E6B80"/>
<path transform="translate(697,445)" d="m0 0 3 1-6 3-5 1v2l-14 5-8 2h-9l3-3z" fill="#B6BBB9"/>
<path transform="translate(949,711)" d="m0 0h12l31 3 8 2v1h-18l-31-3-2-1z" fill="#385E6E"/>
<path transform="translate(1088,560)" d="m0 0 5 1 7 8 2 2 5 1v1l-12 2v-2l-5-2-5-5v-3l-3-1z" fill="#265366"/>
<path transform="translate(874,404)" d="m0 0 12 2 53 11-2 2-9-1-52-11v-2z" fill="#31768D"/>
<path transform="translate(821,918)" d="m0 0 6 3v2h2l9 13 6 12 1 7h-3l-2-4-5-12-6-10-10-10z" fill="#2B5567"/>
<path transform="translate(953,570)" d="m0 0 6 2 23 23v3l-4-1-25-25z" fill="#87BCC1"/>
<path transform="translate(800,935)" d="m0 0 4 1 3 4-1 7-4 5-4-2-2-3v-6z" fill="#1D495D"/>
<path transform="translate(1139,791)" d="m0 0 12 1v2l-4 2v2h-13l-18-1v-1l9-1 1-2 12-1z" fill="#A9ABA7"/>
<path transform="translate(1093,501)" d="m0 0 2 4v2l22 3 19 3v2l-3 1-21-3-16-3-4-2z" fill="#546170"/>
<path transform="translate(482,867)" d="m0 0h28v1l-12 2-37 2h-7v-1l7-2v-1z" fill="#F7F2ED"/>
<path transform="translate(455,918)" d="m0 0h14l10 3 6 2 8 13v4l2 1v6l-3-3-4-6-2-7-2-4-5-2-1-2-10-3h-15z" fill="#5D7783"/>
<path transform="translate(1113,709)" d="m0 0 6 4 6 7h-15l-6-1 3-5z" fill="#134258"/>
<path transform="translate(362,535)" d="m0 0h11l2 2-3 3h-2v2l-11 3h-4v-7z" fill="#FDFCFC"/>
<path transform="translate(1011,791)" d="m0 0h15l32 2v3l-24-1-11-1h-11l-6 5 1-4z" fill="#3A5F6F"/>
<path transform="translate(559,863)" d="m0 0h18v1l-7 1h-10v48l-2-1v-48z" fill="#FBF3E9"/>
<path transform="translate(1071,723)" d="m0 0h9l38 4v3h-12l-28-3v-2l-7-1z" fill="#5A7582"/>
<path transform="translate(976,716)" d="m0 0 16 1 15 2v2l-6 1-22-1-14-2v-1l9-1z" fill="#B1B5AD"/>
<path transform="translate(472,1306)" d="m0 0h11v14h-1l-1-9-3 3h-2v2h-2v19l-2 4z" fill="#DB4D5B"/>
<path transform="translate(633,873)" d="m0 0h1v103h-5l2-9h2z" fill="#D2CCC1"/>
<path transform="translate(981,721)" d="m0 0h20l26 4v1h-24l-19-2-3-1z" fill="#B0B0AA"/>
<path transform="translate(1044,1306)" d="m0 0h11v6l-2-3h-7v35l-1 17h8l2-2v4h-10l-1-1z" fill="#DC4E5B"/>
<path transform="translate(746,407)" d="m0 0h5l-2 3h-2v2l-8 2-14 4h-10v2l-4-2 19-6z" fill="#F4F1ED"/>
<path transform="translate(1169,842)" d="m0 0h29l3 1v2h2l-1 5-1 1-22-1-32-2v-1h17l36 2v-5l-31-1z" fill="#5E7783"/>
<path transform="translate(772,507)" d="m0 0 6 1 2 3-31 6-10 2h-5l2-3 15-3 9-1 11-3z" fill="#C9C5BB"/>
<path transform="translate(654,434)" d="m0 0h5l-3 2-15 5-21 6-25 8h-6l3-2 58-18z" fill="#2B7289"/>
<path transform="translate(428 1e3)" d="m0 0 2 2 5 16 7 11 5 5 1 4-1 2-8-8-7-12-4-16z" fill="#9BBDC3"/>
<path transform="translate(1011,822)" d="m0 0h18l19 1v2h17l16 1v1h-17l-26-1-25-2z" fill="#245063"/>
<path transform="translate(680,730)" d="m0 0 2 1-1 5-1 105h-1v-109z" fill="#48B4CF"/>
<path transform="translate(876,711)" d="m0 0 27 1 13 2 2 2h-22l-17-2-5-1z" fill="#AFAFAA"/>
<path transform="translate(1107,536)" d="m0 0 11 1 15 2v1h-6v4l-10-1-19-3v-1h13v-2z" fill="#1C637B"/>
<path transform="translate(476 1e3)" d="m0 0 5 1 2 4-2 9-3 3-2-1-2-5-2-1 1-5 2-4z" fill="#2B5D70"/>
<path transform="translate(1157,803)" d="m0 0h24l14 1 1 3h-19l-18-1v-2z" fill="#FEF8F3"/>
<path transform="translate(1178,633)" d="m0 0h1l5 38v10l-2-4-1-8-1-12h-3v11l-2-4v-9l1-7h2z" fill="#306275"/>
<path transform="translate(477,971)" d="m0 0 5 2 2 7-2 5-2 2h-4l-2-9z" fill="#295C70"/>
<path transform="translate(1177,881)" d="m0 0h24l1 4-1 1h-10l-13-1-5-2z" fill="#9FBDC3"/>
<path transform="translate(680,634)" d="m0 0 2 2v30l1 10-1 5-1 28h-1z" fill="#48B4CF"/>
<path transform="translate(763,920)" d="m0 0 1 3-2 5-7 16-3 12-3 1 1-10 2-3 3-11 7-12z" fill="#325A6B"/>
<path transform="translate(1018,877)" d="m0 0h24l32 2v1l-16 1h-19l-1-1-20-1z" fill="#3F6372"/>
<path transform="translate(1035,889)" d="m0 0h21l35 2 5 1v1h-21l-33-2-7-1z" fill="#406373"/>
<path transform="translate(767,678)" d="m0 0h1l2 6 1 4-8 7-6 2h-4l2-5 7-4h2l2-4z" fill="#144357"/>
<path transform="translate(803,674)" d="m0 0 1 4-2 7-5 3-8 1-7-3 4-3 15-3z" fill="#527785"/>
<path transform="translate(455,1320)" d="m0 0 6 5 8 10 2 3-6-2-2 1v-2l-4-2-1 6-7-6 2-2 2 2 1-6z" fill="#DC4E5B"/>
<path transform="translate(820,991)" d="m0 0 5 1 1 1v11l-3 4h-5z" fill="#124156"/>
<path transform="translate(777,988)" d="m0 0 4 1 2 3v6l-4 5-4-2-2-4 1-6z" fill="#1F4B5E"/>
<path transform="translate(460,951)" d="m0 0 4 1 2 2v7l-3 5-5-1-1-3v-7z" fill="#204D61"/>
<path transform="translate(1203,871)" d="m0 0h1v28l-2 1-2-1-38-2v-1h41v-9h-11v-1l9-1z" fill="#3C7386"/>
<path transform="translate(975,889)" d="m0 0 7 3 2 5-1 6-2 3-7-2 1-10z" fill="#894B5C"/>
<path transform="translate(699,697)" d="m0 0h1v82h-1l-1-42-1-9 1-10z" fill="#9BBDC4"/>
<path transform="translate(830,618)" d="m0 0 2 4 2 2v20l4-2v7l-1 2v15l-2-3-5-34z" fill="#C9C5BB"/>
<path transform="translate(806,962)" d="m0 0 4 4 3 9 1 4 5 7 1 4-2 1-5-2-3-5-1-14-3-6z" fill="#FFF6ED"/>
<path transform="translate(901,1323)" d="m0 0h1l1 41-2 1-4-4 3 1v-8l-1-6h-2l-1-8 3-2 1-3z" fill="#DC4E5B"/>
<path transform="translate(950,701)" d="m0 0 13 1 37 4v1l-7 1h-11v-2l-7 1-18-3-7-2z" fill="#AFBEBE"/>
<path transform="translate(479,940)" d="m0 0 5 4 7 12 3 9 1 13-2-2-4-15-6-12-3-3z" fill="#A1BDC3"/>
<path transform="translate(1181,803)" d="m0 0h15l3 4v3l-12-1v2h-5l-3-2-19-2v-1h35v-2h-14z" fill="#B1B8B9"/>
<path transform="translate(373,650)" d="m0 0h2l6 8h4v2l-2 1h-9l-6-4 1-5z" fill="#F65263"/>
<path transform="translate(457,1017)" d="m0 0h6l1 3v8l-2 3-5-1-1-1v-10z" fill="#1D5065"/>
<path transform="translate(1138,862)" d="m0 0h28l2 2h-4l-1 2h-20l-6-2z" fill="#A7ADAB"/>
<path transform="translate(840,710)" d="m0 0 4 1v1l-11 2-9 3-19 5h-7l1-2 23-6 10-2 1-1z" fill="#8B9EA4"/>
<path transform="translate(777,957)" d="m0 0h4l2 3v6l-4 5h-3l-3-7 3-6z" fill="#1E4B5F"/>
<path transform="translate(1102,893)" d="m0 0h43l13 1 1 2h-20l-37-2z" fill="#496978"/>
<path transform="translate(928,977)" d="m0 0h16l30 1v1l-18 1-35 1-2-2 9-1z" fill="#23C1E8"/>
<path transform="translate(518,476)" d="m0 0h6l-3 2-15 5-21 6-10 3-3-1 10-4z" fill="#35768B"/>
<path transform="translate(862,728)" d="m0 0 5 2 13 11 7 5 4 4 10 8v2l-4-2-22-18-13-10z" fill="#97A4A7"/>
<path transform="translate(949,718)" d="m0 0h16l14 2 2 1v2h-10l-19-2-3-1z" fill="#B2B1AB"/>
<path transform="translate(273,638)" d="m0 0 1 2 2 1-3 2-1 30-3 2v-32z" fill="#7CBAC7"/>
<path transform="translate(778,926)" d="m0 0 2 3-7 10-6 13-2 6-3 1 2-9 8-16z" fill="#92B3BB"/>
<path transform="translate(1027,725)" d="m0 0h8l11 2v2h16l1 2-18-1-31-3v-1z" fill="#B9B8AF"/>
<path transform="translate(450,946)" d="m0 0h10l7 3 2 3-11-1-1 3-5-2-3-1-1-3z" fill="#A9ABA8"/>
<path transform="translate(1e3 895)" d="m0 0h20l1 1 17 1 1 2-4 1-3-1-28-2v2h2v2h-4l-2 2z" fill="#315E70"/>
<path transform="translate(1048,721)" d="m0 0h13l17 3 10 1v1h-19l-18-2-3-1z" fill="#436676"/>
<path transform="translate(425,953)" d="m0 0 1 4-2 8v9l-1 2v8l-3 2-1-3v-14l2-2 3-12z" fill="#819EA7"/>
<path transform="translate(812,934)" d="m0 0 4 2 8 7v2h2l2 5h2l7 12v5h-2l-7-14-7-9-8-7z" fill="#9BBDC4"/>
<path transform="translate(1108,901)" d="m0 0h22l17 1 6 1v1h-41l-4-1z" fill="#245063"/>
<path transform="translate(440,1312)" d="m0 0h1l1 6v14h3l-1 5-2 9-1 10h-1z" fill="#DC4E5B"/>
<path transform="translate(456,975)" d="m0 0 2 2-4 8v10l2 3 1 8h-3l-3-7v-15l4-8z" fill="#235265"/>
<path transform="translate(790,688)" d="m0 0 4 1-1 3 1 13h2v3h7l-3 2-6-1-4-5-1-3v-12z" fill="#244F62"/>
<path transform="translate(1177,671)" d="m0 0h1l3 16 2 20 4 16-1 3-4-12-4-26-1-8z" fill="#2B7188"/>
<path transform="translate(1152,799)" d="m0 0h17l18 1-3 1v2l-26-1-6-1z" fill="#3E6171"/>
<path transform="translate(441,998)" d="m0 0 4 1 1 2v8l-2 2-5-1-1-7z" fill="#26596D"/>
<path transform="translate(441,970)" d="m0 0 5 2v9l-1 2h-6l-1-1v-6z" fill="#407A8D"/>
<path transform="translate(590,510)" d="m0 0h2l-2 4-11 9-2 3h-2l-1 3-8 6-5 5-4 2 6-7 8-8 8-7 10-9z" fill="#DC4E5B"/>
<path transform="translate(448,1041)" d="m0 0 10 4h12l4-1v2l-6 3h-13l-6-3-2-4z" fill="#AFC0C4"/>
<path transform="translate(1255,783)" d="m0 0 4 1 17 12 2 2v43h-1l-1-42-11-8-10-7z" fill="#42788B"/>
<path transform="translate(366,1334)" d="m0 0 3 1 3 7v4l-8 1-1-5z" fill="#F1EDE7"/>
<path transform="translate(1169,827)" d="m0 0h27v4h-15l-6-2h-6z" fill="#A9ACA8"/>
<path transform="translate(800,388)" d="m0 0h6l6 2 19 4-2 2-9-1-13-3-1-1-9 1-7 1 4-3z" fill="#307389"/>
<path transform="translate(763,986)" d="m0 0h1v5h2l3 13 3 9-2 1-3-3-4-13z" fill="#2D5667"/>
<path transform="translate(785,1334)" d="m0 0 3 1 3 7v4l-8 1-1-4z" fill="#F2EDE8"/>
<path transform="translate(1203,855)" d="m0 0h1v15l-4-1v-5l-34-2v-1h23l13 1z" fill="#517A8A"/>
<path transform="translate(354,808)" d="m0 0 2 1-1 1v5l1 1 14 1-2 4h-4v20h-1l-1-21-7-2-2-2v-7z" fill="#2C829B"/>
<path transform="translate(1044,714)" d="m0 0 8 1 8 3 1 3h-11l-8-1 4-2-4-1 1-2z" fill="#B3B5AC"/>
<path transform="translate(762,918)" d="m0 0h2l-2 5-6 10-3 11-3 7-2 10h-1v-7l5-18 7-14z" fill="#447184"/>
<path transform="translate(1156,915)" d="m0 0h14l25 2v2l-6 1-12-1-10-1v-2h-11z" fill="#746371"/>
<path transform="translate(835,916)" d="m0 0 4 3 2-1 2 1v6l4 10h-3l-7-11z" fill="#617A85"/>
<path transform="translate(779,900)" d="m0 0m-1 1m-1 1m-1 1m-2 1h2l-2 4-6 7 3-3 2 1-8 11-2-2 1-7 9-10z" fill="#466B7C"/>
<path transform="translate(826,620)" d="m0 0 4 2 2 13v7l-3 2-3-19z" fill="#F2EEEA"/>
<path transform="translate(715,537)" d="m0 0 2 1-1 1 4 2-8 4-5 1 1-3h-2l-2 4-2 2 1-5 6-5z" fill="#2A5466"/>
<path transform="translate(792,961)" d="m0 0 3 1-3 4-2 6-1 16h-1l-1-5-2-1v-7l5-13z" fill="#ADBEC2"/>
<path transform="translate(495,940)" d="m0 0 4 4v2h2l2 12-5-2-4-13z" fill="#156983"/>
<path transform="translate(1258,988)" d="m0 0h4l1 12-1 1h-28v-1l23-1 1-7z" fill="#255063"/>
<path transform="translate(425,944)" d="m0 0 1 3-4 11-2 10-1 13h-1v-6h-2l1-10 6-17z" fill="#496E7F"/>
<path transform="translate(1128,878)" d="m0 0h18v1h-5v2l-24 1v-3z" fill="#ACBEC2"/>
<path transform="translate(695,421)" d="m0 0h3v2l-15 5-21 6-3-1 10-4z" fill="#2F758B"/>
<path transform="translate(463,925)" d="m0 0h6v2l6 1 2 3 3 1 1 4h2l1 4-5-4v-2l-9-3-8-2z" fill="#486E7F"/>
<path transform="translate(799,922)" d="m0 0h10l6 3 3 3-5-1-7-2h-7l-7 1v2l-7 4-2-1 7-6z" fill="#4D7080"/>
<path transform="translate(820,596)" d="m0 0 2 4 2 7 2 12v11l-2-4-3-17-1-5z" fill="#1F4B5E"/>
<path transform="translate(877,1006)" d="m0 0h1v8l-6 15-3 6-3-1 7-15 3-8z" fill="#104055"/>
<path transform="translate(818,991)" d="m0 0h2l-1 14-2 2-4-5v-5z" fill="#5391A2"/>
<path transform="translate(490,974)" d="m0 0h1l1 5h2v24l-1 6h-1l-2-28z" fill="#557381"/>
<path transform="translate(382,520)" d="m0 0h6l-3 4-7 1v2l-6 1-3-2 3-3z" fill="#F7F4F2"/>
<path transform="translate(1105,977)" d="m0 0h37v2l-2 1h-12l-4-1-19-1z" fill="#CFC8BB"/>
<path transform="translate(782,957)" d="m0 0 9 3-3 9-5-1z" fill="#FFF6ED"/>
<path transform="translate(795,721)" d="m0 0 6 1v1l-11 2-1 40h-1v-41z" fill="#A3A9A8"/>
<path transform="translate(937,418)" d="m0 0h7l23 5 2 2-13-1-18-4z" fill="#2D6B80"/>
<path transform="translate(445,970)" d="m0 0 7 2 1 5-2 3-1 15h-1v-15l-3-1z" fill="#F8F1E9"/>
<path transform="translate(431,740)" d="m0 0 3 3 4 7v3h-6l-6-9 1-2 4 5 1-2-2-1h2z" fill="#CD4F5F"/>
<path transform="translate(638,668)" d="m0 0 2 3v15l-2-2v-6h-4l-1-8z" fill="#154055"/>
<path transform="translate(1063,533)" d="m0 0 17 1 3 1h9l4 1v2l2 1-13-1-18-3z" fill="#127391"/>
<path transform="translate(891,1306)" d="m0 0h11v8l-3-3-6-1-1 12h-1z" fill="#DC4E5B"/>
<path transform="translate(945,951)" d="m0 0h6l1 7-2 2h-5l-1-1v-7z" fill="#1D495D"/>
<path transform="translate(789,898)" d="m0 0m-2 1 4 2-12 6-5 5-5 3-2 1 2-4 7-7 9-5z" fill="#325A6B"/>
<path transform="translate(1174,631)" d="m0 0 1 2h2l2 10-1 12h-1l-1-7-2-5z" fill="#0E3E54"/>
<path transform="translate(873,1318)" d="m0 0 5 5 12 14h-3l-4-2-4-4v-2h-2v-2h-2l-1-6z" fill="#DC4E5B"/>
<path transform="translate(1225,851)" d="m0 0h1l1 12 5 6 12 1v2l-5 2-6-1-6-5-2-4z" fill="#A1505F"/>
<path transform="translate(872,703)" d="m0 0h9l14 2 5 1v1h-16l-12-2z" fill="#385D6E"/>
<path transform="translate(435,970)" d="m0 0 3 1-1 9-4 1v24h-1v-25l2-9z" fill="#D9DAD7"/>
<path transform="translate(1245,959)" d="m0 0h6l1 1v6l-2 2-5-1-1-7z" fill="#244E61"/>
<path transform="translate(1101,909)" d="m0 0 11 1h12v2h9v1h-21l-12-2z" fill="#5AC0D5"/>
<path transform="translate(1295,1065)" d="m0 0h18l4 2-19 1h-17v-1z" fill="#2F5A6C"/>
<path transform="translate(828,962)" d="m0 0 4 4 3 2v2h2l1-3v23h-1l-1-13-4-8-4 1z" fill="#9DBDC3"/>
<path transform="translate(878,1012)" d="m0 0 2 3-5 13-8 13-1-2 9-19z" fill="#5A7784"/>
<path transform="translate(764,1007)" d="m0 0 3 1 5 11 2 4-1 3h-2l-6-12z" fill="#B5C9CD"/>
<path transform="translate(805,413)" d="m0 0h4l-1 7-5 1-2-2-5-1 2-3z" fill="#AAB0AE"/>
<path transform="translate(792,1318)" d="m0 0 2 1 4 10-1 3h-3l-3-6v-4h-2l1-3z" fill="#DD4E5B"/>
<path transform="translate(850,994)" d="m0 0 2 1-1 10-2 6-3-1 1-11z" fill="#496E7F"/>
<path transform="translate(792,927)" d="m0 0h8l7 2 5 5-6-1-7-3-7-1v2l-4-2z" fill="#9BBDC4"/>
<path transform="translate(1169,842)" d="m0 0h29l3 1v2h2l-1 5-1 1h-7v-1l6-1v-5l-31-1z" fill="#517584"/>
<path transform="translate(826,1027)" d="m0 0h3l-1 4-8 8-9 1 5-4 9-7z" fill="#B8C3C3"/>
<path transform="translate(493,976)" d="m0 0 2 2 1 5v22l-3 3z" fill="#9ABCC3"/>
<path transform="translate(448,938)" d="m0 0 2 1-11 14-5 10h-1l1-7 7-11z" fill="#8BAAB2"/>
<path transform="translate(1135,804)" d="m0 0h14l10 1 1 1 7 1v1h-9l-17-1-6-1z" fill="#B3BBBD"/>
<path transform="translate(1222,1039)" d="m0 0 1 3-9 12-1 3h-5l2-4h2l2-5 2-1 1-3h2l2-4z" fill="#32BEE1"/>
<path transform="translate(845 1e3)" d="m0 0h1l-1 9-4 11-6 10h-2l2-4 6-13z" fill="#245063"/>
<path transform="translate(1134,798)" d="m0 0h18v3l-30-1v-1z" fill="#466877"/>
<path transform="translate(1125,895)" d="m0 0 9 2h9l7 1v1h-32l-1-2 8-1z" fill="#A9ABA7"/>
<path transform="translate(1105,453)" d="m0 0 12 2 19 4-4 2-25-5z" fill="#2D758C"/>
<path transform="translate(1228,840)" d="m0 0h10l-1 2-9 1-4 4-1 4v14l-2-3v-14z" fill="#257B94"/>
<path transform="translate(959,825)" d="m0 0h9l3 4-15 2 1-5z" fill="#7B5464"/>
<path transform="translate(1323,1310)" d="m0 0 4 2 6 7 3 7-1 3-4-7-1-2-3-1v-3l-3-1z" fill="#DC4E5B"/>
<path transform="translate(896,977)" d="m0 0h6l2 4 2 1h-12l-5-1 3-1 1-2z" fill="#17C6F2"/>
<path transform="translate(461,868)" d="m0 0 26 1v1l-26 2h-7v-1l7-2z" fill="#EEE2D3"/>
<path transform="translate(1011,822)" d="m0 0h18l19 1v1l-21 1-14-1z" fill="#476877"/>
<path transform="translate(1012,793)" d="m0 0h11l28 2v1h-18l-19-2 1 3-4 1v-4z" fill="#AEBDC0"/>
<path transform="translate(478,973)" d="m0 0 5 1 1 6-2 5-5 1 2-1z" fill="#164459"/>
<path transform="translate(1029,905)" d="m0 0h13l11 2v1h-16l-12-1z" fill="#17C6F2"/>
<path transform="translate(396,981)" d="m0 0 1 2h3l2 6-3 2h-5v-6z" fill="#F75364"/>
<path transform="translate(1146,802)" d="m0 0h30v1l-17 1v1h-10l-4-2z" fill="#E2E3DF"/>
<path transform="translate(837,642)" d="m0 0h1v7l-1 2v15l-2-3-2-19z" fill="#CAC6BA"/>
<path transform="translate(846,714)" d="m0 0 5 2 11 10 2 2-3 1-9-8-6-5z" fill="#ACB4B3"/>
<path transform="translate(871,700)" d="m0 0h16l-1 4-13-1-3-2z" fill="#C1BEB3"/>
<path transform="translate(484,1033)" d="m0 0v3l-7 8-7 2-4-1 10-5z" fill="#ABBEC2"/>
<path transform="translate(955,828)" d="m0 0h2l-2 4-4 10h-3l1-8 5-5z" fill="#2E4156"/>
<path transform="translate(1049,821)" d="m0 0h22l2 3-22-1z" fill="#B3BCBE"/>
<path transform="translate(408,602)" d="m0 0h2v2h3v39h-1v-38h-6z" fill="#F3EAE0"/>
<path transform="translate(1164,493)" d="m0 0h7l-4 3 3 24v7h-1z" fill="#317C94"/>
<path transform="translate(829,395)" d="m0 0h7l16 4v1h-9l-13-3z" fill="#2E6B80"/>
<path transform="translate(772,1054)" d="m0 0 5 2 6 4 11 4 4 2h-7l-12-5-7-5z" fill="#5D7683"/>
<path transform="translate(429,981)" d="m0 0h1v26l-3-1 1-17z" fill="#4C7889"/>
<path transform="translate(479,940)" d="m0 0 5 4 5 8v6l-9-12z" fill="#AFBDC1"/>
<path transform="translate(793,916)" d="m0 0 2 1-4 4-9 6-3 1 2-4 2-3h3v-2z" fill="#ACB7BB"/>
<path transform="translate(752,965)" d="m0 0h1l-1 16-1 2h-2v-13z" fill="#9BBDC4"/>
<path transform="translate(822,961)" d="m0 0 6 1 1 6-2 2-4-1-2-7z" fill="#285365"/>
<path transform="translate(1054,820)" d="m0 0h23l4 3h-7v2h-8v-1l6-1-1-1-17-1z" fill="#9BBDC4"/>
<path transform="translate(697,445)" d="m0 0 3 1-6 3-8 3-9 2 4-4z" fill="#B6B8B1"/>
<path transform="translate(874,404)" d="m0 0 12 2 14 3v1h-10l-14-3v-2z" fill="#2F7990"/>
<path transform="translate(797,899)" d="m0 0h7l4 3-16 2-1-4z" fill="#A3BDC2"/>
<path transform="translate(1202,810)" d="m0 0h1v30h-1v-7h-2v-7l1-4z" fill="#4D7989"/>
<path transform="translate(979,714)" d="m0 0h13l8 2v1h-18l-3-1z" fill="#375D6D"/>
<path transform="translate(928,700)" d="m0 0h16l13 3v1h-10l-2-1-17-2z" fill="#BDC2BD"/>
<path transform="translate(775,683)" d="m0 0h11l-3 3 6 2v1h-10z" fill="#A1BDC2"/>
<path transform="translate(863,466)" d="m0 0 12 1v3h-8l-11-2v-1z" fill="#616775"/>
<path transform="translate(428,966)" d="m0 0h1l-1 12-2 6h-1v-16z" fill="#0F3F54"/>
<path transform="translate(768,962)" d="m0 0h5l3 9-6-2-3-3z" fill="#F4EFE8"/>
<path transform="translate(981,879)" d="m0 0 5 1-3 7h-5l-1-5 1-2z" fill="#894C5D"/>
<path transform="translate(1228,842)" d="m0 0 6 1-5 5-2 3h-4l1-5z" fill="#444A5D"/>
<path transform="translate(1043,793)" d="m0 0h15v3l-24-1v-1z" fill="#476876"/>
<path transform="translate(1199,725)" d="m0 0h1l3 17 8 8-4-1-6-4-2-13z" fill="#25839D"/>
<path transform="translate(996,709)" d="m0 0h13v4l-15-1-1-2z" fill="#ABACA7"/>
<path transform="translate(805,525)" d="m0 0h4l3 4 2 19-2 1-2-16-4-6z" fill="#316C80"/>
<path transform="translate(828,939)" d="m0 0 5 5 2-1 1 8-1 2h2l1 5-2 1-5-13-3-5z" fill="#496E7E"/>
<path transform="translate(1139,893)" d="m0 0 19 1 1 2h-20z" fill="#3B6071"/>
<path transform="translate(1160,726)" d="m0 0h12l14 1 2 6h-2v-3l-26-3z" fill="#ADB0AA"/>
<path transform="translate(1052,583)" d="m0 0h7l-2 2-19 4h-2l1-3z" fill="#507181"/>
<path transform="translate(979,460)" d="m0 0h9l12 3v1h-10l-10-2z" fill="#C6C2B6"/>
<path transform="translate(827,999)" d="m0 0 1 3 2 1 1 3-3 9-1-4v-3l-3-1z" fill="#FBF3EB"/>
<path transform="translate(788,901)" d="m0 0h4v2l-12 5-7 7v-3l9-8z" fill="#A9B4B4"/>
<path transform="translate(1034,719)" d="m0 0 16 1-2 1v2l-18-1z" fill="#476877"/>
<path transform="translate(995,715)" d="m0 0 15 1v3h-9l-9-1z" fill="#476877"/>
<path transform="translate(401,696)" d="m0 0 3 3 2 3-1 5-1 19h-1l-1-26z" fill="#585264"/>
<path transform="translate(482,1009)" d="m0 0h6l-1 9-2 2-1-6-3 1z" fill="#EEE9E3"/>
<path transform="translate(1184,907)" d="m0 0h15l-2 4-12-1-2-2z" fill="#0C3C52"/>
<path transform="translate(1181,803)" d="m0 0h15l3 4v3l-9-1v-2l5-1v-2h-14z" fill="#A4B5BB"/>
<path transform="translate(1048,721)" d="m0 0h13v2h7v1h-17l-3-1z" fill="#3A5F70"/>
<path transform="translate(965,712)" d="m0 0 15 1-1 3-18-1z" fill="#476877"/>
<path transform="translate(895,705)" d="m0 0 17 1-2 1v2l-16-1z" fill="#476877"/>
<path transform="translate(1090,576)" d="m0 0v3l-3 1-5 1-2-1v2l-5 1-3-2 9-3z" fill="#99BCC3"/>
<path transform="translate(489,966)" d="m0 0 3 1 1 5v19h-1l-2-17z" fill="#2E5769"/>
<path transform="translate(824,906)" d="m0 0 6 4 7 9-1 3-9-10-4-4z" fill="#9BBDC4"/>
<path transform="translate(1098,796)" d="m0 0h18l-3 1v2h-9l-6-1z" fill="#436574"/>
<path transform="translate(936,709)" d="m0 0 14 1-1 3-18-1v-1l5-1z" fill="#456675"/>
<path transform="translate(836,669)" d="m0 0h1l2 15v5l-2-2-1 5h-1v-14z" fill="#DEDDD7"/>
<path transform="translate(839,1009)" d="m0 0h1v6l-7 13-3-1 8-15z" fill="#2F5869"/>
<path transform="translate(1157,980)" d="m0 0h9l14 2v1h-19l-4-2z" fill="#ADBEC2"/>
<path transform="translate(1020,841)" d="m0 0h19l-1 3-18-1z" fill="#3D6171"/>
<path transform="translate(1151,731)" d="m0 0 17 1 1 3h-9l-11-1z" fill="#5F7783"/>
<path transform="translate(952,847)" d="m0 0 4 5 4 4h10l-2 2-8 1-2-1v-2l-4-2-2-4z" fill="#B94C5B"/>
<path transform="translate(854,694)" d="m0 0 7 2v4h5v1h-8l-4-3z" fill="#C9C5B9"/>
<path transform="translate(1016,434)" d="m0 0 12 2 9 2v1h-10l-10-2z" fill="#2A7188"/>
<path transform="translate(836,943)" d="m0 0h2l3 8v6h-2l-4-11z" fill="#A8BDC2"/>
<path transform="translate(916,923)" d="m0 0h5v2h23v1h-29z" fill="#F6EEE5"/>
<path transform="translate(1057,856)" d="m0 0h17l12 1v1h-22l-1 2-1-2-5-1z" fill="#9BBDC4"/>
<path transform="translate(930,711)" d="m0 0 13 1 1 2-4 1h-10l-1-3z" fill="#B1BCBD"/>
<path transform="translate(507,566)" d="m0 0 2 1-12 12 3 2-5 1-1-4z" fill="#E6E0D7"/>
<path transform="translate(412,569)" d="m0 0 2 1-3 4-3 1-1 3-4 1v2l-5 1 5-5z" fill="#DC4E5B"/>
<path transform="translate(561,555)" d="m0 0 2 1-7 7h6l-2 2-11 2 2-3h2v-2z" fill="#DED8CF"/>
<path transform="translate(1086,450)" d="m0 0h8l11 3 1 2-14-2-6-2z" fill="#2F687C"/>
<path transform="translate(998,431)" d="m0 0h7l11 3 1 2-8-1-10-2z" fill="#316E83"/>
<path transform="translate(612,1329)" d="m0 0h13v11l-4-1h2l1-7-3 1v-2l-9-1z" fill="#DC4E5B"/>
<path transform="translate(758 1e3)" d="m0 0h4l2 11-4-1-2-5z" fill="#295365"/>
<path transform="translate(763,986)" d="m0 0h1v5h2l1 3v7l-3-1-1-2z" fill="#1D4A5D"/>
<path transform="translate(915,821)" d="m0 0h1l1 14 4 1 1 2-5 1h-9v-1l7-1z" fill="#BAC0C0"/>
<path transform="translate(1011,791)" d="m0 0h15v1l-14 2-6 5 1-4z" fill="#4F6E7C"/>
<path transform="translate(714,515)" d="m0 0 5 1v1l-16 3h-7v-1l10-1v-2z" fill="#7CBAC6"/>
<path transform="translate(608,448)" d="m0 0 3 1-3 2-13 4h-6l3-2z" fill="#2F768D"/>
<path transform="translate(833,1016)" d="m0 0h3l-2 6-4 6-3-2z" fill="#B0BEC1"/>
<path transform="translate(797,1008)" d="m0 0h6v1h-5l-1 12-2 2v-14z" fill="#37697B"/>
<path transform="translate(1093,839)" d="m0 0h14l-1 3-19-1v-1z" fill="#A6BDC3"/>
<path transform="translate(858,701)" d="m0 0 15 1-1 3-12-1-2-1z" fill="#3D6171"/>
<path transform="translate(386,604)" d="m0 0 2 1-6 6 2 2-3 1h-7l4-4z" fill="#E7DED3"/>
<path transform="translate(768,1010)" d="m0 0 3 3h2l4 8v3l-2-4-4-1-3-6z" fill="#1F4B5E"/>
<path transform="translate(840 1e3)" d="m0 0h1l-1 8-3 7h-3l3-9z" fill="#A3BDC3"/>
<path transform="translate(674,967)" d="m0 0h1v9l-1 1h-13v-1h9v-2h3v-6z" fill="#E9E0D5"/>
<path transform="translate(1233,931)" d="m0 0 19 2v1h-24l4-2z" fill="#894C5D"/>
<path transform="translate(1106,727)" d="m0 0h12v3h-12z" fill="#587582"/>
<path transform="translate(1073,726)" d="m0 0 15 1-3 2h-14v-2z" fill="#ABB6B2"/>
<path transform="translate(1096,536)" d="m0 0h11l4 1v2h-13l-2-1z" fill="#16495E"/>
<path transform="translate(806,962)" d="m0 0 4 4 3 9-2 8h-1l-1-13-3-6z" fill="#D7DCD9"/>
<path transform="translate(881,958)" d="m0 0h1v13h-2l-2-11z" fill="#0B3C52"/>
<path transform="translate(446,927)" d="m0 0h2v2l-6 5-4 6-2-3 6-7z" fill="#587582"/>
<path transform="translate(441,924)" d="m0 0 2 1-14 14 2-5 3-4h2l2-4z" fill="#4E7180"/>
<path transform="translate(439,596)" d="m0 0 3 1-4 2-1 24h-1l-1-26z" fill="#C3C1B8"/>
<path transform="translate(1020,487)" d="m0 0 2 1v8l3 3-5-1-2-2v-7z" fill="#815D6B"/>
<path transform="translate(922,471)" d="m0 0h2v8l1 3 2 2-2 2v-2l-4-2v-10z" fill="#946672"/>
<path transform="translate(1031,439)" d="m0 0h10l10 2-2 2-8-1-10-2z" fill="#346D81"/>
<path transform="translate(1044,1306)" d="m0 0h11v6l-2-3h-9z" fill="#DA4D5B"/>
<path transform="translate(782,1036)" d="m0 0h2l4 4v-2l7 2-1 2-5 1-8-5z" fill="#B9C0BF"/>
<path transform="translate(442,972)" d="m0 0 3 1v9h-5z" fill="#134257"/>
<path transform="translate(752,945)" d="m0 0h1v7l-2 5h-2l1-10z" fill="#30586A"/>
<path transform="translate(849,917)" d="m0 0 2 3 2 7-1 4-5-10z" fill="#0F3F55"/>
<path transform="translate(952,882)" d="m0 0 4 1-5 5-2 3v11l-2-1v-11l3-7z" fill="#C54C5B"/>
<path transform="translate(901,759)" d="m0 0 9 6 5 4-1 3-12-10-2-2z" fill="#B1B8B6"/>
<path transform="translate(704,443)" d="m0 0h6v2l-13 4-3-1z" fill="#AEAFAA"/>
<path transform="translate(450,1353)" d="m0 0h1v10h-10l-1-2 9-2z" fill="#DC4E5B"/>
<path transform="translate(789,972)" d="m0 0h1l1 16 3 4-1 3-3-3-1-2z" fill="#2F5869"/>
<path transform="translate(762,918)" d="m0 0h2l-2 5-6 10-1 2-2-1 6-12z" fill="#587582"/>
<path transform="translate(678,844)" d="m0 0h1l1 11 2 2-8 1v-3h2z" fill="#9EBCBF"/>
<path transform="translate(927,579)" d="m0 0 4 2 1 7-1 2-3-3z" fill="#48B4CF"/>
<path transform="translate(1205,902)" d="m0 0 2 1-2 7-5 6-2-2 5-6z" fill="#ECE8E1"/>
<path transform="translate(663,855)" d="m0 0h11l-4 3h-9l-1-2z" fill="#ABBFC0"/>
<path transform="translate(949,851)" d="m0 0h2l1 2 2-1 4 4v2l5 1v1h-6v-2l-5-2z" fill="#28667C"/>
<path transform="translate(761,994)" d="m0 0 3 4 2 9-3 1-2-8z" fill="#9CBDC3"/>
<path transform="translate(441,928)" d="m0 0 3 2-5 4-6 8-1-2 4-7h2l2-4z" fill="#9BBDC4"/>
<path transform="translate(451,921)" d="m0 0v3l-5 4-4 1 2-4z" fill="#9EB8BC"/>
<path transform="translate(889,749)" d="m0 0 6 4 6 5v2l-4-2-9-7z" fill="#A0ADAF"/>
<path transform="translate(1028,721)" d="m0 0 13 1v2l-9 1-3-1z" fill="#AEBCC0"/>
<path transform="translate(1181,662)" d="m0 0 2 3 1 6v10l-2-4-1-8z" fill="#345B6D"/>
<path transform="translate(831,661)" d="m0 0 2 2 1 11h-2l-2-6z" fill="#1A475B"/>
<path transform="translate(1090,533)" d="m0 0 17 2v1l-9 1-7-2zm-1 2 2 1z" fill="#2F5668"/>
<path transform="translate(774,422)" d="m0 0 3 1v2l-9 2h-7l3-2z" fill="#B7B9B4"/>
<path transform="translate(472,1044)" d="m0 0h2v2l-6 3h-11v-1l13-3z" fill="#F0EEEA"/>
<path transform="translate(769,1015)" d="m0 0 3 4 2 4-1 3h-2l-3-5v-5z" fill="#ACC1C6"/>
<path transform="translate(1282,935)" d="m0 0 4 5 3 3-1 4-2-2v-3h-2v-2l-6-1 4-1z" fill="#8AA7AF"/>
<path transform="translate(1223,866)" d="m0 0h4l4 5 4 3-7-1v-2l-4-2z" fill="#1E5B72"/>
<path transform="translate(956,825)" d="m0 0 3 1-7 5-3 6-1 5h-1l1-9 5-6z" fill="#18627B"/>
<path transform="translate(999,718)" d="m0 0 8 1v2l-6 1-7-1-1-2z" fill="#B3BEC2"/>
<path transform="translate(501,555)" d="m0 0v3l-4 4h-2v2l-5 4-2-1 9-9z" fill="#DE4E5B"/>
<path transform="translate(428 1e3)" d="m0 0 2 2 3 9v5l-1-3h-2l-2-9z" fill="#8FBCC2"/>
<path transform="translate(792,961)" d="m0 0 3 1-3 4-2 6-2-1 1-7z" fill="#9FBDC3"/>
<path transform="translate(1225,851)" d="m0 0h1l1 12 5 7-4-1-3-5z" fill="#B44C5B"/>
<path transform="translate(1196,826)" d="m0 0 5 1-1 5h-5z" fill="#9CBBC1"/>
<path transform="translate(969,715)" d="m0 0 7 1-2 2h-12v-2z" fill="#B2BEC2"/>
<path transform="translate(895,410)" d="m0 0h10l5 1v2l2 1-12-2-5-1z" fill="#407689"/>
<path transform="translate(432 1e3)" d="m0 0h1l2 6-1 4-2 1-2-9z" fill="#466877"/>
<path transform="translate(421,974)" d="m0 0 2 2v8l-3 2v-9z" fill="#9BBDC4"/>
<path transform="translate(821,957)" d="m0 0 6 3-1 4v-2l-7 1 1-5z" fill="#1F4A5D"/>
<path transform="translate(821,903)" d="m0 0 5 2 6 5 2 5-4-3v-2l-4-2-5-3z" fill="#5C7683"/>
<path transform="translate(833,654)" d="m0 0h2v8l-1 7h-1l-1-11z" fill="#EEE8E2"/>
<path transform="translate(847,464)" d="m0 0h9l7 2v1h-8l-8-2z" fill="#335A6C"/>
<path transform="translate(695,421)" d="m0 0h3v2l-13 4h-2v-2z" fill="#32788E"/>
<path transform="translate(826,1027)" d="m0 0h3l-1 4-4 4h-2l1-4z" fill="#DFDDD6"/>
<path transform="translate(771,912)" d="m0 0 2 1-8 11-2-2 7-9z" fill="#507181"/>
<path transform="translate(910,707)" d="m0 0h11l-1 3-10-1z" fill="#3D6171"/>
<path transform="translate(744,431)" d="m0 0 3 1-7 4-6 1 4-4z" fill="#B2B2AC"/>
<path transform="translate(345,1359)" d="m0 0 1 2h10l-2 2h-11z" fill="#E24F5D"/>
<path transform="translate(1215,1049)" d="m0 0 1 2-3 6h-5l2-4z" fill="#36C1E4"/>
<path transform="translate(456,975)" d="m0 0 2 2-4 8-3 1 3-9z" fill="#31596A"/>
<path transform="translate(463,951)" d="m0 0 8 1 1 2h-2l-1 2h-2l-1 3-2-6z" fill="#ADB8BA"/>
<path transform="translate(391,586)" d="m0 0 2 1-2 4-6 4-2-2z" fill="#DE4E5B"/>
<path transform="translate(354,546)" d="m0 0 7 1 1 4v2l-4-2z" fill="#B8B8B0"/>
<path transform="translate(1049,442)" d="m0 0h7l7 2v1h-8l-6-2z" fill="#2B687D"/>
<path transform="translate(714,440)" d="m0 0h6v2l-10 2-2-2z" fill="#B1B2AE"/>
</svg>
